<svg width="180" height="180" viewBox="0 0 180 180" fill="none" xmlns="http://www.w3.org/2000/svg">
<circle cx="90" cy="90" r="90" fill="#CAD99E"/>
<path d="M31.6348 114.949H148.256" stroke="white" stroke-width="2"/>
<path d="M30.6909 45.4101H149.199V130.442C149.199 130.994 148.752 131.442 148.199 131.442H31.6909C31.1386 131.442 30.6909 130.994 30.6909 130.442V45.4101ZM149.199 43.4101H30.6909V37.2576C30.6909 36.7053 31.1386 36.2576 31.6909 36.2576H148.199C148.752 36.2576 149.199 36.7053 149.199 37.2576V43.4101ZM31.6346 115.949H148.256V113.949H31.6346V115.949Z" stroke="white" stroke-width="2"/>
<rect x="68.8267" y="130.416" width="42.2373" height="13.2542" stroke="white" stroke-width="2"/>
<path d="M60.79 153.823L70.2086 142.521C70.3986 142.293 70.6801 142.161 70.9768 142.161H108.914C109.211 142.161 109.492 142.293 109.682 142.521L119.101 153.823H60.79Z" stroke="white" stroke-width="2"/>
<path d="M100.386 68.0543C100.386 73.8206 95.7115 78.495 89.9453 78.495C84.1791 78.495 79.5046 73.8206 79.5046 68.0543C79.5046 62.2881 84.1791 57.6136 89.9453 57.6136C95.7115 57.6136 100.386 62.2881 100.386 68.0543Z" stroke="white" stroke-width="2"/>
<path d="M94.2844 122.97C94.2844 120.574 92.3418 118.631 89.9454 118.631C87.5491 118.631 85.6064 120.574 85.6064 122.97C85.6064 125.366 87.5491 127.309 89.9454 127.309C92.3418 127.309 94.2844 125.366 94.2844 122.97Z" stroke="white" stroke-width="2"/>
<path d="M107.438 114.949H74.3958L76.0361 101.826C76.2275 100.295 75.7013 98.7617 74.6103 97.6707L68.5647 91.6251V91.6251C63.401 86.4614 58.8901 80.684 55.133 74.4221L54.9589 74.1319L52.3146 68.8434C51.5459 67.306 51.66 65.4745 52.6134 64.0444L53.2089 63.1512C54.2086 61.6515 56.1687 61.131 57.7808 61.9371V61.9371C58.4724 62.2829 59.0332 62.8437 59.379 63.5353L62.7336 70.2445L65.841 75.4235C67.5986 78.3528 70.3461 80.5568 73.5869 81.637L76.1205 82.4816C78.7114 83.3452 81.5559 82.9643 83.8283 81.4494V81.4494C85.2821 80.4802 86.9902 79.963 88.7375 79.963H90.9171C94.0855 79.963 97.1831 80.9008 99.8194 82.6584L100.17 82.8923C101.126 83.5294 102.016 84.2594 102.829 85.0716L103.905 86.1478C107.507 89.7498 110.221 94.141 111.832 98.9736L117.157 114.949H107.438ZM107.438 114.949L103.551 99.3998" stroke="white" stroke-width="2"/>
</svg>
