<?xml version="1.0" encoding="UTF-8" standalone="no"?>
<!-- Created with Inkscape (http://www.inkscape.org/) -->

<svg
   version="1.1"
   id="svg2"
   width="161.33333"
   height="158.66667"
   viewBox="0 0 161.33333 158.66667"
   sodipodi:docname="logo-d33.svg"
   inkscape:version="1.2.2 (b0a8486541, 2022-12-01)"
   xmlns:inkscape="http://www.inkscape.org/namespaces/inkscape"
   xmlns:sodipodi="http://sodipodi.sourceforge.net/DTD/sodipodi-0.dtd"
   xmlns="http://www.w3.org/2000/svg"
   xmlns:svg="http://www.w3.org/2000/svg">
  <defs
     id="defs6" />
  <sodipodi:namedview
     id="namedview4"
     pagecolor="#ffffff"
     bordercolor="#666666"
     borderopacity="1.0"
     inkscape:showpageshadow="2"
     inkscape:pageopacity="0.0"
     inkscape:pagecheckerboard="0"
     inkscape:deskcolor="#d1d1d1"
     showgrid="false"
     inkscape:zoom="3.9083989"
     inkscape:cx="76.246055"
     inkscape:cy="50.148412"
     inkscape:window-width="2560"
     inkscape:window-height="1051"
     inkscape:window-x="0"
     inkscape:window-y="0"
     inkscape:window-maximized="1"
     inkscape:current-layer="g8" />
  <g
     inkscape:groupmode="layer"
     inkscape:label="Image"
     id="g8">
    <g
       id="g1670"
       transform="translate(-0.12706565,-0.60467453)">
      <path
         style="fill:#e7f5f7;stroke-width:1.33333"
         d="M 60.268949,156.0595 C 45.629535,152.09026 35.280823,146.024 23.850454,134.71154 -7.6659142,103.52022 -7.8682924,55.739261 23.383596,24.487373 38.976517,8.894451 58.805627,0.80863699 81.333332,0.85692246 108.76728,0.91572389 134.81029,15.04795 149.58832,37.895453 c 14.27518,22.070082 15.80246,52.885528 3.79958,76.663097 -9.06846,17.96454 -25.4577,32.19999 -45.3879,39.42327 -13.805691,5.00357 -33.739434,5.87126 -47.731051,2.07768 z m 35.998754,-10.89296 c 16.480437,-3.49904 33.257907,-15.18527 42.639307,-29.70013 7.12925,-11.03034 10.42632,-22.514247 10.42632,-36.315583 0,-22.558604 -10.18669,-41.581117 -29.10087,-54.342633 C 91.770897,5.6049945 56.105418,8.9190474 32.077583,32.999586 11.201377,53.921586 6.3724159,82.704935 19.337464,108.93793 33.181133,136.9487 64.812703,151.84488 96.267703,145.16654 Z M 63.7129,131.2136 C 54.967566,128.52342 41.956848,119.21026 36.405349,111.66667 l -4.660846,-6.33333 6.461082,-0.0293 c 8.340923,-0.0378 16.554569,-3.81977 20.592988,-9.482018 2.624678,-3.680049 3.270111,-6.41034 3.582688,-15.155371 C 62.707565,71.5376 62.323168,69.251215 59.714595,64.805472 55.749764,58.048279 49.292439,54.666668 40.354135,54.666668 c -9.001864,0 -9.041774,-1.573835 -0.282942,-11.157394 18.876434,-20.653827 51.055529,-23.792439 74.119317,-7.229281 5.54513,3.982212 15.14282,14.929499 15.14282,17.272155 0,0.612985 -2.15742,1.11452 -4.79428,1.11452 -6.32922,0 -11.73371,3.346888 -14.38611,8.909032 -3.0003,6.291703 -2.75388,7.092137 2.18039,7.082537 3.36222,-0.0065 4.81636,-0.857674 6.48869,-3.797949 1.18545,-2.084236 3.3848,-4.111025 4.88744,-4.503975 3.90051,-1.020005 8.88209,1.853003 9.39289,5.41712 0.56427,3.937293 -1.65028,6.50885 -6.52782,7.580137 -3.0089,0.660866 -3.90787,1.600744 -3.90787,4.085705 0,2.658033 0.66921,3.227393 3.79335,3.227393 6.89387,0 10.75147,7.931378 6.11342,12.569427 -5.22116,5.221155 -12.35546,3.728042 -15.21899,-3.185137 -1.40087,-3.38198 -2.42191,-4.050956 -6.18287,-4.050956 -5.21935,0 -5.6855,1.775732 -2.32511,8.857229 2.38853,5.033449 6.59114,7.749489 14.19961,9.176849 2.72466,0.51115 4.95393,1.35459 4.95393,1.87431 0,1.97313 -9.80758,12.2898 -15.22993,16.02047 -12.7627,8.78097 -33.960389,11.92872 -49.05717,7.28474 z m 27.122506,-25.90493 c 10.077794,-2.79929 15.505634,-12.914009 11.297214,-21.052202 -1.15686,-2.237116 -3.330985,-4.457112 -4.831395,-4.933324 -2.642447,-0.83868 -2.621994,-0.949241 0.652042,-3.524598 3.660333,-2.879214 4.600953,-9.692597 2.007206,-14.539066 -3.619872,-6.763791 -19.219857,-8.990103 -25.942236,-3.702279 -3.046917,2.396706 -7.351572,9.657414 -7.351572,12.399975 0,0.390221 1.95,0.705699 4.333334,0.701061 3.362218,-0.0065 4.816357,-0.857674 6.488691,-3.797949 1.185448,-2.084236 3.384794,-4.111025 4.887436,-4.503975 3.900507,-1.020005 8.882092,1.853003 9.392891,5.41712 0.56428,3.937293 -1.650278,6.50885 -6.527816,7.580137 -3.008901,0.660866 -3.907869,1.600744 -3.907869,4.085705 0,2.608841 0.68262,3.227393 3.561678,3.227393 9.907745,0 11.540343,13.18777 1.89486,15.306274 -4.799405,1.054125 -8.840905,-1.267719 -10.912634,-6.269315 -1.249183,-3.015794 -2.370735,-3.703625 -6.038997,-3.703625 -5.101218,0 -5.30212,0.620269 -2.482987,7.665979 3.494405,8.733379 12.878953,12.587369 23.480154,9.642689 z M 27.999999,79.14815 V 62.296299 l 8.194203,0.743024 c 6.454642,0.585286 8.931378,1.480198 11.666666,4.215488 3.08562,3.08562 3.472464,4.521712 3.472464,12.890939 0,8.6666 -0.298644,9.675359 -3.741018,12.636364 -3.047284,2.621163 -5.21075,3.217888 -11.666667,3.217888 h -7.925648 z"
         id="path1688" />
      <path
         style="fill:#c9eaef;stroke-width:1.33333"
         d="M 62.966449,156.63756 C 32.862298,150.0996 8.2860277,125.17764 1.8551654,94.666669 -5.3681215,60.396075 13.054431,24.322138 45.68802,8.8358021 57.776981,3.098961 66.214332,1.3333334 81.539834,1.3333334 c 23.057716,0 40.709736,7.3938111 57.126826,23.9284206 19.70336,19.844392 27.05292,45.963162 20.61675,73.267431 -9.60783,40.759365 -53.70428,67.362925 -96.316961,58.108375 z m 35.525598,-11.9079 C 131.60617,135.91602 153.83809,103.81449 149.25254,71.434622 143.87125,33.435829 107.86875,6.8166001 70.3147,13.070211 43.761856,17.491868 21.441181,37.227787 14.440609,62.474025 2.8467129,104.28522 35.772443,146.54384 79.999998,146.61642 c 6.233334,0.0107 14.554756,-0.83882 18.492049,-1.88676 z M 66.290001,131.95146 C 55.484354,129.24943 42.793347,120.59353 36.222703,111.44407 l -4.388398,-6.11073 h 6.792338 c 13.113119,0 21.295102,-6.448353 23.9623,-18.885068 4.045749,-18.864679 -7.076504,-33.114938 -25.846037,-33.114938 -1.875265,0 -3.409573,-0.551648 -3.409573,-1.225884 0,-0.674236 3.046982,-4.559768 6.771073,-8.634514 22.846651,-24.99788 64.030164,-23.228232 84.862204,3.646513 4.99871,6.448677 5.30059,7.541779 1.83235,6.634813 -4.61229,-1.206141 -14.11491,4.111177 -16.56165,9.267295 -3.15502,6.648723 -2.84789,7.645111 2.3566,7.645111 3.69872,0 4.93467,-0.7145 6.34261,-3.666667 3.15184,-6.608802 14.39681,-5.387782 14.39681,1.56326 0,3.94221 -2.45507,6.103407 -6.93333,6.103407 -3.25926,0 -3.73334,0.507936 -3.73334,4 0,3.507132 0.46741,4 3.79335,4 4.27017,0 8.21693,3.586187 8.18624,7.438322 -0.0748,9.381249 -14.00277,10.81739 -17.15702,1.769097 -1.14898,-3.29597 -2.05725,-3.874085 -6.08654,-3.874085 -5.48682,0 -5.95817,1.688167 -2.50384,8.967636 2.32365,4.896732 10.17491,9.611902 16.10115,9.669752 4.2877,0.0418 3.78321,1.53642 -3.10452,9.19723 -4.14459,4.60978 -9.33071,8.38416 -16.15304,11.75594 -9.099871,4.4974 -11.198419,4.9972 -22.228814,5.29413 -6.699161,0.18034 -14.449793,-0.23962 -17.223625,-0.93323 z m 27.811145,-27.8116 C 99.454337,101.70854 104,95.245493 104,90.065617 c 0,-3.705242 -3.81814,-9.828195 -6.698775,-10.742473 -2.642447,-0.83868 -2.621994,-0.949241 0.652042,-3.524598 4.633153,-3.644438 4.733623,-11.899534 0.2,-16.433154 C 93.759035,54.97116 85.082836,52.76916 79.466473,54.622726 74.10956,56.390668 68.496724,62.093201 67.283885,67.000001 c -0.860708,3.482183 -0.667898,3.666667 3.832148,3.666667 3.856409,0 5.063969,-0.682536 6.487151,-3.666667 3.151848,-6.608802 14.396814,-5.387782 14.396814,1.56326 0,3.94221 -2.455071,6.103407 -6.933333,6.103407 -3.259259,0 -3.733333,0.507936 -3.733333,4 0,3.446164 0.493146,4 3.561678,4 4.38932,0 8.4452,3.472279 8.417904,7.206651 -0.07007,9.586339 -13.948484,11.204771 -17.157017,2.000768 -1.148981,-3.29597 -2.057252,-3.874085 -6.086538,-3.874085 -5.486826,0 -5.958176,1.688167 -2.503842,8.967636 1.508079,3.178042 3.995092,5.504662 7.666667,7.172222 6.873756,3.12194 11.995206,3.12194 18.868962,0 z M 27.999999,79.146798 V 62.293593 l 7.436608,0.767527 c 12.196349,1.258773 16.563392,5.76516 16.563392,17.091895 0,6.138497 -2.895495,12.495383 -6.592812,14.474128 -1.410865,0.755072 -5.904656,1.372859 -9.9862,1.372859 h -7.420988 z"
         id="path1686" />
      <path
         style="fill:#a3dbe5;stroke-width:1.33333"
         d="M 63.333332,156.4767 C 40.649291,151.6825 18.734517,134.86776 8.8192949,114.64923 -4.554177,87.378854 -1.9044869,57.320219 16.0163,33.004914 31.022825,12.64374 54.26081,1.3333334 81.08767,1.3333334 c 23.53978,0 41.02988,7.2672354 57.58869,23.9284206 19.03961,19.157322 26.71361,44.920961 21.14994,71.005953 -9.02316,42.304713 -52.58821,69.488123 -96.492968,60.208993 z m 33.962925,-11.24924 c 10.400913,-2.39666 22.499113,-9.12731 31.440283,-17.49133 24.7899,-23.18973 28.10123,-60.192679 7.8485,-87.704072 C 121.78595,19.92891 94.875119,8.9803378 70.3147,13.070211 43.35223,17.56008 20.682194,37.893735 13.98889,63.591065 3.2376265,104.86796 36.41843,146.59263 79.999998,146.59966 c 6.233334,0.001 14.016649,-0.61648 17.296259,-1.3722 z M 63.293327,130.7088 c -4.422003,-1.44398 -10.987873,-4.72128 -14.590825,-7.28289 -6.23723,-4.43451 -15.369169,-14.50388 -15.369169,-16.94688 0,-0.63013 2.66094,-1.14569 5.9132,-1.14569 11.982323,0 19.624316,-5.705446 22.945866,-17.131178 C 67.382104,70.350203 58.454377,55.831015 41.078891,53.865201 36.818834,53.38323 33.333333,52.41839 33.333333,51.721113 c 0,-0.697279 3.45,-4.708199 7.666666,-8.913155 13.577221,-13.539519 30.622956,-19.248866 48.603592,-16.279427 14.436899,2.384204 28.094609,10.37245 35.598189,20.820993 4.83467,6.732156 4.97318,7.287581 1.59718,6.404738 -4.61229,-1.206141 -14.11491,4.111177 -16.56165,9.267295 -3.15502,6.648723 -2.84789,7.645111 2.3566,7.645111 3.69872,0 4.93467,-0.7145 6.34261,-3.666667 3.15184,-6.608802 14.39681,-5.387782 14.39681,1.56326 0,3.94221 -2.45507,6.103407 -6.93333,6.103407 -3.25926,0 -3.73334,0.507936 -3.73334,4 0,3.548672 0.44786,4 3.96927,4 5.42865,0 9.07196,5.320877 6.90292,10.08139 -3.28491,7.209607 -13.43689,6.620925 -16.06979,-0.931837 -1.12719,-3.233463 -2.05356,-3.816219 -6.06637,-3.816219 -5.39654,0 -5.84911,1.421652 -2.78621,8.752212 2.04024,4.882976 10.23126,9.825116 16.38352,9.885176 4.58027,0.0447 3.66799,2.20187 -4.30156,10.17142 -10.83035,10.83034 -21.990871,15.65192 -37.365108,16.14251 -9.127404,0.29125 -13.92464,-0.24557 -20.040005,-2.24252 z m 31.027906,-26.66748 c 10.395257,-4.718714 13.020927,-18.815314 4.42364,-23.749478 l -3.760303,-2.158118 3.013209,-2.37019 c 6.792471,-5.342961 4.220341,-15.615914 -4.952256,-19.779057 -7.253822,-3.292273 -9.567429,-3.281832 -16.500605,0.07445 -3.651222,1.767526 -6.376934,4.298926 -7.754298,7.201505 -3.034231,6.394173 -2.696711,7.406232 2.469957,7.406232 3.698725,0 4.934669,-0.7145 6.342607,-3.666667 3.151848,-6.608802 14.396814,-5.387782 14.396814,1.56326 0,3.94221 -2.455071,6.103407 -6.933333,6.103407 -3.259259,0 -3.733333,0.507936 -3.733333,4 0,3.446164 0.493146,4 3.561678,4 4.38932,0 8.4452,3.472279 8.417904,7.206651 -0.07007,9.586339 -13.948484,11.204775 -17.157017,2.000768 -1.148981,-3.29597 -2.057252,-3.874085 -6.086538,-3.874085 -5.486826,0 -5.958176,1.688167 -2.503842,8.967636 1.508079,3.178046 3.995092,5.504666 7.666667,7.172226 6.927656,3.14642 11.998137,3.12024 19.089049,-0.0985 z M 27.999999,80.078691 c 0,-9.643567 0.54996,-16.261204 1.394782,-16.783332 2.68683,-1.660554 14.743235,0.951269 18.228093,3.948817 6.71952,5.779887 5.296836,23.362387 -2.215687,27.382967 -1.410865,0.755072 -5.904656,1.372859 -9.9862,1.372859 h -7.420988 z"
         id="path1684" />
      <path
         style="fill:#87d1de;stroke-width:1.33333"
         d="M 64.666665,156.78454 C 46.49199,152.57679 32.626819,144.76971 21.280522,132.35505 3.9675079,113.41185 -2.9549218,89.391199 1.93879,65.239739 7.4412049,38.084203 25.448894,16.653402 51.333332,6.4557051 60.369376,2.8957731 64.245983,2.1591874 76.692028,1.6373527 87.544201,1.1823455 93.642515,1.5883847 100.02536,3.1909379 c 29.74225,7.4674441 52.67712,30.2816131 59.46425,59.1513261 2.81133,11.958275 1.84341,31.242334 -2.13928,42.621446 -7.94143,22.68976 -28.75288,42.62636 -51.98857,49.80313 -11.32273,3.49724 -30.250875,4.43571 -40.695095,2.0177 z m 34.62005,-12.16175 c 10.454275,-2.72299 19.639405,-7.86221 28.517775,-15.95612 24.81116,-22.61894 29.2172,-58.195985 10.65064,-85.99964 C 117.79481,11.727962 73.949181,2.7523731 43.333332,23.194756 -6.1820929,56.256499 5.2732727,128.25553 62.666665,144.70823 c 8.377474,2.40153 27.240892,2.35752 36.62005,-0.0855 z M 63.999999,130.91914 c -4.033334,-1.34316 -9.733333,-3.96803 -12.666667,-5.83305 -5.605657,-3.56409 -17.999999,-16.09756 -17.999999,-18.20205 0,-0.67661 3.608062,-1.49118 8.017917,-1.81016 C 53.5989,104.18797 61.435061,96.860489 63.278068,84.570442 65.944693,66.788111 54.94086,53.370413 37.666666,53.34077 c -2.383333,-0.0041 -4.333333,-0.395641 -4.333333,-0.870113 0,-2.514416 10.833557,-13.498452 17.674407,-17.919908 22.67513,-14.655645 52.22792,-10.587354 71.09045,9.786441 l 7.67506,8.289979 -5.792,1.145423 c -7.56115,1.495285 -11.27183,4.039385 -13.86638,9.506996 -3.02456,6.373777 -2.6845,7.38708 2.47904,7.38708 3.69872,0 4.93467,-0.7145 6.34261,-3.666667 3.15184,-6.608802 14.39681,-5.387782 14.39681,1.56326 0,3.94221 -2.45507,6.103407 -6.93333,6.103407 -3.25926,0 -3.73334,0.507936 -3.73334,4 0,3.377778 0.51852,4 3.33334,4 3.36581,0 8.66666,4.13119 8.66666,6.754322 0,2.916671 -2.9339,6.746619 -6.08635,7.945176 -4.66223,1.77258 -9.89551,-0.942132 -10.83075,-5.618353 -0.66689,-3.334451 -1.31941,-3.747811 -5.91623,-3.747811 -4.3195,0 -5.16667,0.448101 -5.16667,2.73288 0,7.442165 6.70349,13.935198 15.90614,15.406768 2.98496,0.47731 5.4272,1.36432 5.4272,1.97114 0,3.18156 -15.272,16.31259 -23.39125,20.11204 -11.539977,5.40021 -29.006718,6.55996 -40.608751,2.69631 z M 94.244909,104.0755 C 104.42025,99.455737 107.21878,88.076686 99.868297,81.210307 96.587762,78.14583 96.156551,77.189567 97.775129,76.56846 101.26626,75.228786 102.86072,68.378796 100.8189,63.492029 98.259182,57.36576 92.671298,54.125345 84.666665,54.125345 c -7.945332,0 -12.894589,2.852146 -15.885129,9.154243 -3.090007,6.511705 -2.708616,7.38708 3.218463,7.38708 4.246913,0 5.333333,-0.488889 5.333333,-2.4 0,-3.555804 2.676922,-5.6 7.333333,-5.6 4.815872,0 7.333333,2.05974 7.333333,6 0,3.843578 -2.491867,6 -6.933333,6 -3.259259,0 -3.733333,0.507936 -3.733333,4 0,3.377778 0.518518,4 3.333333,4 3.608212,0 8.666666,4.194016 8.666666,7.185622 0,2.616247 -4.151321,7.100493 -7.457162,8.055207 -3.492856,1.008722 -9.876171,-3.733827 -9.876171,-7.337602 0,-2.10932 -0.955834,-2.569893 -5.333333,-2.569893 -5.989944,0 -6.514444,1.258855 -3.515242,8.436953 3.891105,9.312725 15.930063,12.706905 27.093486,7.638545 z m -65.952615,-24.408832 0.374372,-16.333333 7.009112,0.291297 c 8.853041,0.367932 12.065722,2.097699 14.437098,7.7732 3.88805,9.305412 1.13834,20.765395 -5.596872,23.326118 -1.845949,0.701828 -6.335678,1.276052 -9.977177,1.276052 h -6.620905 z"
         id="path1682" />
      <path
         style="fill:#7ccddb;stroke-width:1.33333"
         d="M 64.666665,156.69862 C 42.145104,151.75496 21.970285,137.6042 11.170774,119.17623 -13.823949,76.52596 7.0750388,21.772222 54.666666,5.2203465 66.388021,1.1437804 88.046388,0.18416043 100.0909,3.2077291 c 14.70733,3.6920212 27.26315,10.7581899 37.84498,21.2984039 44.94128,44.764562 21.88317,119.254587 -40.879671,132.063187 -12.185616,2.48683 -21.480369,2.52394 -32.389544,0.1293 z m 35.424665,-12.18064 c 15.19656,-4.50882 29.75261,-15.02792 38.61039,-27.90226 C 156.47004,90.790351 152.82088,55.137048 130.10638,32.636726 92.131434,-4.9801376 27.380841,12.175894 14.041589,63.38874 c -2.344402,9.000768 -2.602156,22.560922 -0.594536,31.277929 5.258473,22.832091 27.411203,45.210151 49.9992,50.507771 8.776974,2.0585 28.697306,1.70163 36.645077,-0.65646 z M 63.555256,130.56841 c -4.277943,-1.47159 -10.015013,-4.08773 -12.749045,-5.81365 -4.921549,-3.10684 -17.472878,-16.08856 -17.472878,-18.07204 0,-0.56588 3.608062,-1.28986 8.017917,-1.60884 C 53.469599,104.19732 61.435712,96.856145 63.226427,84.914807 65.870664,67.281773 57.324252,55.436341 40.721568,53.722793 36.658039,53.3034 33.333333,52.459489 33.333333,51.847436 c 0,-0.612055 3.45,-4.62296 7.666666,-8.913123 C 63.955787,19.5784 99.749169,20.197574 122.09819,44.33719 l 7.67506,8.289979 -5.792,1.145423 c -7.23128,1.43005 -11.5593,4.210532 -14.0494,9.025863 -3.13838,6.068952 -2.52963,7.868213 2.66206,7.868213 3.69662,0 4.93717,-0.716183 6.3513,-3.666667 1.47976,-3.087422 2.59201,-3.666666 7.04064,-3.666666 4.53362,0 5.46226,0.508961 6.54474,3.587004 1.62599,4.623485 -0.8038,7.746329 -6.02719,7.746329 -3.37415,0 -3.83674,0.482268 -3.83674,4 0,3.377778 0.51852,4 3.33334,4 3.36581,0 8.66666,4.13119 8.66666,6.754322 0,9.207329 -15.10715,11.3766 -16.8972,2.426312 -0.68931,-3.446563 -1.30763,-3.8473 -5.93613,-3.8473 -4.47061,0 -5.16599,0.40416 -5.16168,3 0.0127,7.634749 9.21633,15.666668 17.95219,15.666668 1.85689,0 3.37616,0.3882 3.37616,0.86268 0,0.47447 -2.08653,3.409 -4.63672,6.52118 -13.40923,16.3642 -39.393134,23.54047 -59.808024,16.51788 z M 94.244909,104.0755 c 10.181831,-4.62271 12.973931,-15.998757 5.614082,-22.873885 -2.277554,-2.127555 -3.446938,-3.86828 -2.598632,-3.86828 0.848307,0 2.419812,-2.1 3.492231,-4.666667 1.6966,-4.060535 1.70223,-5.259329 0.0433,-9.229625 -2.661331,-6.369452 -7.765181,-9.344981 -15.997949,-9.326751 -8.171216,0.01809 -13.712865,3.229223 -16.313224,9.452756 -2.68131,6.417276 -2.341672,7.10362 3.515242,7.10362 4.246913,0 5.333333,-0.488889 5.333333,-2.4 0,-3.555804 2.676922,-5.6 7.333333,-5.6 4.815872,0 7.333333,2.05974 7.333333,6 0,3.843578 -2.491867,6 -6.933333,6 -3.259259,0 -3.733333,0.507936 -3.733333,4 0,3.377778 0.518518,4 3.333333,4 3.608212,0 8.666666,4.194016 8.666666,7.185622 0,3.445153 -4.729138,7.814379 -8.458085,7.814379 -4.283604,0 -8.875248,-3.728388 -8.875248,-7.206651 0,-1.981129 -1.038228,-2.460016 -5.333333,-2.460016 -4.643452,0 -5.332688,0.388059 -5.328349,3 0.0076,4.60246 4.488161,10.922538 9.490342,13.386788 5.918063,2.91544 12.543084,2.80923 19.416251,-0.31129 z M 27.999999,80.234019 c 0,-9.751682 0.548743,-16.41578 1.394782,-16.93866 2.834153,-1.751604 14.991438,0.969649 18.065527,4.04374 5.488238,5.488237 5.840703,18.445533 0.675282,24.824559 -1.984976,2.451341 -4.11284,3.126747 -11.290765,3.583803 l -8.844826,0.563196 z"
         id="path1680" />
      <path
         style="fill:#72c9d9;stroke-width:1.33333"
         d="M 68.536144,157.41375 C 36.726262,152.39192 9.5570819,127.6396 2.5893695,97.333335 0.21607892,87.01064 0.55242634,68.711957 3.2896305,59.236256 9.3064053,38.407279 23.74732,20.590672 42.53596,10.815748 55.302768,4.1737241 66.599935,1.3789618 80.786714,1.3530415 103.19653,1.3120971 123.29068,9.6440627 138.91654,25.456369 c 32.21854,32.602936 29.25015,84.834251 -6.51752,114.681501 -7.22213,6.02669 -22.08184,13.50084 -31.06569,15.62543 -8.748989,2.06904 -24.973829,2.88553 -32.797186,1.65045 z M 99.94305,144.49423 c 15.89506,-4.50601 31.03848,-15.7735 40.02855,-29.78329 C 156.58661,88.818663 152.53677,54.903992 130.16872,32.618701 115.55396,18.058008 96.932794,11.018261 76.666665,12.392205 46.542939,14.434446 22.39538,33.999455 13.96766,63.192643 c -3.071622,10.63994 -2.179115,29.19055 1.913594,39.773717 6.395883,16.53884 22.117797,32.48062 38.500754,39.03916 15.501368,6.20563 29.71147,6.98184 45.561042,2.48871 z M 67.490317,131.85026 c -8.834334,-2.07395 -20.671589,-9.30999 -27.560492,-16.84754 -3.628071,-3.96969 -6.596492,-7.76926 -6.596492,-8.4435 0,-0.67424 3.21127,-1.22588 7.136155,-1.22588 15.494367,0 25.837528,-14.398919 22.887205,-31.861726 C 61.413591,61.970485 50.956658,53.333334 38.975431,53.333334 H 33.18257 L 35.591285,49.20919 C 39.130358,43.149674 46.80479,36.661177 56.29389,31.705771 c 8.108062,-4.234198 8.879517,-4.372437 24.400811,-4.372437 15.371789,0 16.386618,0.176529 24.785949,4.311504 5.45279,2.6844 11.3546,7.057125 15.63863,11.586854 7.45463,7.882178 8.37111,10.101642 4.17123,10.101642 -8.09435,0 -17.27332,8.319325 -17.28553,15.666667 -0.004,2.545702 0.70804,3.000001 4.70353,3.000001 3.32073,0 4.92103,-0.687723 5.42954,-2.333334 1.53287,-4.960609 2.93838,-6.347493 6.82917,-6.738671 4.50966,-0.4534 8.36611,2.50684 8.36611,6.421887 0,2.932923 -1.60965,4.104066 -7.21695,5.25088 C 122.8838,75.261899 122,76.134862 122,78.666668 c 0,2.531807 0.8838,3.40477 4.11638,4.065904 6.12377,1.252443 7.21695,2.324799 7.21695,7.079453 0,5.433402 -2.05238,7.52131 -7.39335,7.52131 -4.48196,0 -8.60665,-3.405029 -8.60665,-7.104988 0,-1.710848 -1.23858,-2.228345 -5.33333,-2.228345 -4.64345,0 -5.33269,0.388059 -5.32835,3 0.0127,7.634749 9.21633,15.666668 17.95219,15.666668 1.85689,0 3.37616,0.5318 3.37616,1.18178 0,2.28255 -12.73077,14.49036 -18.66667,17.89988 -11.626304,6.67803 -28.751293,9.17535 -41.843013,6.10193 z m 26.798922,-27.41021 c 9.799021,-4.64994 12.718171,-16.304433 5.813321,-23.209279 -2.143587,-2.143589 -3.358995,-3.897436 -2.700905,-3.897436 0.658091,0 2.149992,-1.843793 3.315335,-4.097319 6.00177,-11.606137 -8.434201,-23.376279 -22.61049,-18.435111 -5.938215,2.069774 -11.804408,9.328722 -11.162507,13.812714 0.560622,3.916207 9.455417,3.962553 10.181223,0.05305 0.775412,-4.176704 2.885214,-6.000004 6.942804,-6.000004 4.264634,0 7.931978,3.050877 7.931978,6.598645 0,3.191139 -2.447089,5.065401 -7.333333,5.616709 -3.237639,0.365297 -4,1.076197 -4,3.729986 0,2.592884 0.861011,3.454768 4.116387,4.120564 6.123765,1.252443 7.216946,2.324799 7.216946,7.079453 0,5.370748 -2.047733,7.52131 -7.161678,7.52131 -4.579211,0 -8.838322,-3.312192 -8.838322,-6.873317 0,-1.981129 -1.038228,-2.460016 -5.333333,-2.460016 -4.643452,0 -5.332688,0.388059 -5.328349,3 0.0077,4.662556 4.933431,11.622971 9.687942,13.689891 5.840603,2.53907 13.597811,2.43846 19.262981,-0.24984 z M 29.333333,80.000002 V 64.000001 h 7.39394 c 9.268271,0 13.286805,3.404488 14.635657,12.399281 1.903457,12.693165 -3.722252,19.60072 -15.963384,19.60072 h -6.066213 z"
         id="path1678" />
      <path
         style="fill:#67c5d6;stroke-width:1.33333"
         d="M 68.729649,157.24712 C 58.202101,155.63058 53.043214,153.8993 42.666666,148.50063 16.681768,134.98131 1.0573194,109.2103 1.1360903,80.000002 1.1980293,57.031393 7.5943276,41.721609 24.105848,25.021007 40.963524,7.9702852 60.450344,0.46169856 84.658217,1.6891999 101.7232,2.5545089 112.99821,6.1417071 126.01268,14.846315 c 21.09189,14.107112 33.28474,35.028082 34.86364,59.820353 1.80265,28.305742 -11.6103,54.670292 -35.93229,70.628712 -15.10337,9.90978 -37.920292,14.76089 -56.214381,11.95174 z M 93.999998,145.99414 C 119.367,140.66827 138.60152,124.10844 146.67428,100.64454 161.5055,57.536844 127.57156,11.936836 80.719866,12.015825 53.862343,12.061106 30.757731,26.623002 18.593426,51.17159 13.34714,61.75904 12.883975,63.571885 12.293766,75.828754 11.769924,86.707359 12.151247,90.68205 14.43961,98.19581 c 7.759168,25.47695 29.030404,43.90077 55.91157,48.42711 9.573433,1.61202 13.469333,1.50843 23.648818,-0.62878 z M 66.523295,131.48653 c -9.991838,-2.89503 -19.657307,-8.89454 -26.642442,-16.5374 -3.601136,-3.94021 -6.54752,-7.71567 -6.54752,-8.38991 0,-0.67424 3.068306,-1.22588 6.81846,-1.22588 12.878234,0 21.749726,-8.454333 23.382122,-22.282632 1.9717,-16.702604 -6.732028,-27.749811 -23.315478,-29.593172 l -7.114896,-0.790868 4.711022,-6.16096 C 43.341874,39.277222 52.090378,33.16245 62.526289,29.23343 c 6.246794,-2.351859 9.662566,-2.730696 20.807043,-2.307676 16.949348,0.643359 25.346438,4.207353 36.727348,15.588264 8.44115,8.441151 9.59071,10.819316 5.22983,10.819316 -8.09435,0 -17.27332,8.319325 -17.28553,15.666667 -0.004,2.545702 0.70804,3.000001 4.70353,3.000001 3.32073,0 4.92103,-0.687723 5.42954,-2.333334 1.53287,-4.960609 2.93838,-6.347493 6.82917,-6.738671 2.40869,-0.242169 4.90405,0.467087 6.19887,1.761904 4.10139,4.101386 2.03073,8.46627 -4.66041,9.824007 -3.62763,0.736103 -4.5879,1.61958 -4.92758,4.533518 -0.36451,3.126953 0.0555,3.619242 3.08766,3.619242 5.87744,0 8.66757,2.289891 8.66757,7.113579 0,5.464507 -2.04441,7.553088 -7.39335,7.553088 -4.48196,0 -8.60665,-3.405029 -8.60665,-7.104988 0,-1.710848 -1.23858,-2.228345 -5.33333,-2.228345 -4.64345,0 -5.33269,0.388059 -5.32835,3 0.007,3.902769 4.42174,11.087638 7.98572,12.995028 1.54003,0.8242 5.19798,1.91249 8.12877,2.41843 l 5.32871,0.91988 L 124.674,112 c -5.04239,6.83877 -14.97591,14.27556 -23.34067,17.47413 -9.170411,3.50665 -26.245802,4.49379 -34.810035,2.0124 z M 94.013627,104.7469 c 9.770743,-4.08248 13.010463,-16.594603 6.088933,-23.516129 -2.143587,-2.143589 -3.358995,-3.897436 -2.700905,-3.897436 0.658091,0 2.149992,-1.843793 3.315335,-4.097319 6.00177,-11.606137 -8.434201,-23.376279 -22.61049,-18.435111 -5.895561,2.054907 -11.439835,8.870459 -11.439835,14.06294 0,2.692991 0.656912,3.136157 4.648774,3.136157 4.052593,0 4.898831,-0.598475 6.59863,-4.666667 1.609856,-3.852927 2.642607,-4.666667 5.922656,-4.666667 4.507872,0 8.163273,2.992651 8.163273,6.683216 0,2.934903 -1.613955,4.10756 -7.216946,5.243644 -3.226566,0.654231 -4.207587,1.617011 -4.538283,4.453898 -0.364511,3.126953 0.05547,3.619242 3.087655,3.619242 5.877445,0 8.667574,2.289891 8.667574,7.113579 0,5.401675 -2.039925,7.553088 -7.161678,7.553088 -4.579211,0 -8.838322,-3.312192 -8.838322,-6.873317 0,-1.981129 -1.038228,-2.460016 -5.333333,-2.460016 -4.643452,0 -5.332688,0.388059 -5.328349,3 0.0077,4.662556 4.933431,11.622968 9.687942,13.689888 5.60679,2.43742 13.235419,2.46033 18.987369,0.057 z M 29.333333,80.000002 V 64.000001 h 7.036658 c 8.600061,0 12.396357,2.410262 14.237421,9.039311 1.89805,6.834242 1.740324,10.491543 -0.671669,15.574441 -2.490353,5.248032 -6.735713,7.386249 -14.665148,7.386249 h -5.937262 z"
         id="path1676" />
      <path
         style="fill:#5dc2d3;stroke-width:1.33333"
         d="M 73.333332,157.88591 C 36.519447,151.74779 12.648778,131.83039 3.2941929,99.446107 -1.5047253,82.832918 1.1803662,59.607533 9.7789239,43.35477 15.14332,33.215133 28.229674,19.311314 37.881142,13.497091 62.105921,-1.0963632 92.187477,-2.6182447 116.81101,9.5038827 141.90542,21.857822 158.75585,46.529016 160.93754,74.11082 c 2.87591,36.35816 -22.73792,71.73769 -58.72162,81.11025 -8.138713,2.11987 -23.59704,3.54613 -28.882588,2.66484 z M 91.999998,146.63504 C 112.72165,143.41964 133.7725,128.08079 143.12798,109.38029 165.66122,64.338991 132.09014,12 80.666665,12 29.250691,12 -3.729723,65.116116 19.366049,110.7268 c 6.78734,13.40398 23.629379,27.84424 38.069319,32.64043 13.072287,4.34192 22.126228,5.19789 34.56463,3.26781 z M 66.806173,131.22331 c -10.704551,-2.87861 -19.592006,-8.25036 -26.92532,-16.27418 -3.601136,-3.94021 -6.54752,-7.71567 -6.54752,-8.38991 0,-0.67424 3.097285,-1.22588 6.882856,-1.22588 13.616809,0 22.242818,-8.629642 23.507359,-23.517252 1.390943,-16.375755 -9.053312,-28.372919 -24.770461,-28.453471 -5.429376,-0.02783 -5.6373,-0.171808 -4.180098,-2.894616 3.04687,-5.693128 14.074199,-14.989611 22.560343,-19.019279 8.123168,-3.857307 9.62824,-4.115388 24,-4.115388 14.25185,0 15.897585,0.275821 23.333328,3.910613 C 112.33212,34.991025 128,48.856688 128,51.893334 c 0,0.792 -1.21927,1.44 -2.70949,1.44 -8.09435,0 -17.27332,8.319325 -17.28553,15.666667 -0.004,2.544638 0.70837,3.000001 4.69469,3.000001 3.89157,0 4.9376,-0.625809 6.08341,-3.639531 1.61703,-4.253111 3.44629,-5.64521 7.45501,-5.673386 3.25029,-0.02285 7.09524,3.217524 7.09524,5.979583 0,3.048728 -3.98187,6 -8.09524,6 -3.44973,0 -3.90476,0.466124 -3.90476,4 0,3.40511 0.50878,4 3.42099,4 5.83754,0 8.57901,2.306231 8.57901,7.216986 0,5.545376 -2.52936,7.756072 -8.24623,7.207323 -3.48409,-0.33443 -4.84408,-1.336095 -6.42044,-4.728786 -1.74577,-3.757312 -2.65775,-4.308144 -7.17445,-4.333333 l -5.17446,-0.02886 0.78413,4.832037 c 0.43128,2.657622 1.85978,6.040431 3.17446,7.517355 2.93947,3.30224 9.80948,6.31728 14.39441,6.31728 2.92674,0 3.2302,0.36039 2.09287,2.48551 -2.66329,4.97639 -13.60411,14.50023 -20.58362,17.91777 -13.155745,6.44173 -25.874922,7.78343 -39.373827,4.15336 z m 27.012782,-26.39507 c 10.258845,-4.28642 13.598165,-16.282909 6.506505,-23.374576 -3.619913,-3.619908 -3.635231,-3.70495 -1.030307,-5.719706 1.898677,-1.468516 2.644237,-3.637526 2.644237,-7.692675 0,-4.664074 -0.73905,-6.307848 -4.244065,-9.439584 C 92.255822,53.741504 85.118873,52.35673 78.1065,54.800905 c -5.895561,2.054907 -11.439835,8.870459 -11.439835,14.06294 0,2.699485 0.654372,3.136157 4.699668,3.136157 3.891572,0 4.9376,-0.625809 6.083415,-3.639531 1.617029,-4.253111 3.446292,-5.64521 7.455012,-5.673386 3.250289,-0.02285 7.095238,3.217524 7.095238,5.979583 0,3.048728 -3.981874,6 -8.095238,6 -3.449735,0 -3.904762,0.466124 -3.904762,4 0,3.40511 0.508779,4 3.420988,4 5.837537,0 8.579012,2.306231 8.579012,7.216986 0,5.545376 -2.52936,7.756072 -8.246234,7.207323 -3.484083,-0.33443 -4.844078,-1.336095 -6.420432,-4.728786 -1.728002,-3.719069 -2.679998,-4.308401 -7,-4.333333 -4.3063,-0.02485 -4.999308,0.387364 -4.995016,2.971144 0.0077,4.662556 4.933431,11.622968 9.687942,13.689888 5.544052,2.41015 13.220264,2.46666 18.792697,0.13835 z M 29.333333,80.000002 V 64.000001 h 7.036658 c 4.171367,0 8.227741,0.834268 9.961752,2.048816 5.552036,3.888796 7.03452,18.772594 2.480016,24.898765 -2.282772,3.070509 -7.865511,5.05242 -14.231893,5.05242 h -5.246533 z"
         id="path1674" />
      <path
         style="fill:#53bed1;stroke-width:1.33333"
         d="M 69.333332,157.28834 C 29.977294,151.09711 1.5268484,119.07807 1.1049346,80.501924 0.86524181,58.586481 8.082665,41.162829 23.96299,25.320067 35.529575,13.780843 45.875354,7.7829807 60.79468,3.9672596 c 48.36962,-12.370867 96.31261,21.4384944 100.1031,70.5926364 2.74586,35.607444 -23.20502,71.438574 -58.35405,80.571164 -9.971805,2.59093 -24.468042,3.53257 -33.210398,2.15728 z m 33.922578,-13.36138 c 30.67679,-9.47509 51.00045,-41.69002 46.3651,-73.493107 C 147.39781,55.180441 141.70198,44.11792 130.12302,32.564506 115.92251,18.39533 100.832,12.046603 81.28013,12.015825 50.085116,11.96672 23.266269,31.386466 14.451576,60.406929 12.150257,67.98352 11.768633,71.990636 12.27152,83.297894 c 0.549142,12.347277 1.092698,14.723908 5.480777,23.963956 10.178297,21.4326 29.278694,35.49354 54.247702,39.93497 6.175102,1.0984 22.715419,-0.63196 31.255911,-3.26986 z M 66.698991,131.19588 C 54.290663,127.86146 40.857554,118.47426 35.591285,109.45748 l -2.408715,-4.12414 h 6.873876 c 13.63741,0 22.098606,-7.842789 23.541251,-21.820674 C 64.681829,73.008443 62.146451,65.044905 55.930014,59.428728 51.07892,55.046056 49.182931,54.433572 36.084555,53.017816 33.028079,52.687453 33.291783,52.174801 40.539651,44.35694 45.803034,38.679631 51.046023,34.666989 57.09014,31.690273 c 8.369315,-4.12187 9.639631,-4.356939 23.544904,-4.356939 13.796445,0 15.255822,0.264072 23.785016,4.303865 C 112.91802,35.662201 128,48.724598 128,52.059626 c 0,0.700539 -1.5298,1.273708 -3.39955,1.273708 -7.61332,0 -14.93735,6.268098 -16.16523,13.83463 l -0.78414,4.832038 h 5.34113 c 4.85727,0 5.41295,-0.35914 6.13401,-3.964447 1.30803,-6.540164 9.51992,-7.168223 13.39529,-1.024494 1.93325,3.064834 -2.50115,7.655607 -7.39483,7.655607 -3.32594,0 -3.79335,0.492868 -3.79335,4 0,3.078987 0.59956,4 2.60393,4 1.43216,0 4.13216,0.69631 6,1.547354 2.64183,1.2037 3.39607,2.525828 3.39607,5.953088 0,8.361561 -11.03421,10.01299 -14.66667,2.195081 -1.728,-3.719069 -2.67999,-4.308401 -7,-4.333333 -4.62108,-0.02667 -5,0.260651 -5,3.791332 0,7.153944 7.01869,13.4213 16.54448,14.77345 l 5.21115,0.7397 -6.75867,7.38991 c -14.36016,15.70138 -34.913055,21.86098 -54.964629,16.47263 z m 27.119964,-26.36764 c 10.335595,-4.31848 13.921665,-17.527545 6.440515,-23.723212 -3.577287,-2.962601 -3.633705,-3.185236 -1.292781,-5.10141 4.013891,-3.285594 4.466631,-10.669355 0.929874,-15.165607 -9.765354,-12.414638 -30.399152,-8.43195 -32.794679,6.329953 l -0.784132,4.832038 h 5.507791 c 4.257769,0 5.507789,-0.505735 5.507789,-2.228346 0,-3.168792 3.934354,-7.104988 7.101662,-7.104988 2.897647,0 7.565004,3.558868 7.565004,5.768329 0,2.782986 -4.541664,6.231671 -8.20665,6.231671 -3.325944,0 -3.79335,0.492868 -3.79335,4 0,3.078987 0.599564,4 2.60393,4 1.432161,0 4.132161,0.69631 6,1.547354 2.641833,1.2037 3.39607,2.525828 3.39607,5.953088 0,8.361561 -11.03421,10.01299 -14.666666,2.195081 -1.74577,-3.757312 -2.657752,-4.308144 -7.174456,-4.333333 l -5.174457,-0.02886 0.776602,4.78564 c 0.427132,2.632101 1.555638,5.729337 2.50779,6.882745 5.469371,6.625427 16.642286,8.881797 25.550144,5.159857 z M 29.333333,80.000002 V 64.000001 h 5.937262 c 10.699309,0 14.887477,3.548516 16.164609,13.695817 0.851955,6.769098 -2.431278,14.099012 -7.435205,16.599313 -1.833333,0.916058 -5.883333,1.674404 -9,1.685215 l -5.666666,0.01966 z"
         id="path1672" />
    </g>
  </g>
</svg>
