<svg width="179" height="179" fill="none" xmlns="http://www.w3.org/2000/svg"><circle cx="89.5" cy="89.5" r="89.5" fill="#FF9393"/><circle cx="73.521" cy="50.868" r="13.462" stroke="#fff" stroke-width="2"/><path d="M117.221 125.806c0 11.6-1.126 21.892-5.191 29.265-2.019 3.662-4.758 6.595-8.455 8.622-3.703 2.03-8.427 3.183-14.458 3.183-10.668 0-17.522-4.524-21.771-11.825-4.299-7.386-5.972-17.691-5.972-29.245 0-11.362 4.406-21.671 10.138-29.14 2.865-3.732 6.044-6.733 9.137-8.792 3.11-2.07 6.055-3.138 8.468-3.138 2.414 0 5.383 1.07 8.528 3.14 3.129 2.061 6.353 5.063 9.263 8.796 5.821 7.47 10.313 17.777 10.313 29.134Z" stroke="#fff" stroke-width="2"/><path d="M93.556 95.567c0 16.39-10.361 29.238-22.664 29.238-6.99 0-12.222-2.204-15.77-7.448-3.609-5.335-5.58-13.96-5.58-27.048 0-9.69 2.58-15.952 6.746-19.808 4.18-3.87 10.134-5.486 17.233-5.486 6.276 0 11.202 2.147 14.605 6.907 3.448 4.824 5.43 12.465 5.43 23.645Z" fill="#FF9393" stroke="#fff" stroke-width="2"/><path d="M116.25 118c.75 3.889.75 12.756.75 14 0 1.244-1 8.296-1.5 11.667l-1.863 7.245a21.614 21.614 0 0 1-3.965 8.005l-.457.579a19.095 19.095 0 0 1-8.753 6.221c-.973.336-1.972.593-2.987.769l-.758.131c-1.475.255-2.97.383-4.467.383H90" stroke="#fff" stroke-width="2"/><circle cx="105.074" cy="58.756" r="13.462" stroke="#fff" stroke-width="2"/><path d="M126.423 98.417c0 13.477-8.589 23.979-18.72 23.979-10.132 0-18.72-10.502-18.72-23.979 0-6.872.663-12.627 3.002-16.97 2.286-4.243 6.246-7.264 13.178-8.544 5.038.035 10.333 3.003 14.412 7.737 4.091 4.747 6.848 11.15 6.848 17.777Z" fill="#FF9393" stroke="#fff" stroke-width="2"/><circle cx="90.612" cy="102.141" r="12.147" fill="#FF9393" stroke="#fff" stroke-width="2"/><path d="m70.893 122.818-4.214-1.915a9.259 9.259 0 0 1-4.953-5.502c-1.155-3.466 1.58-5.84 4.75-4.024 4.36 2.498 9.79 5.226 14.933 5.226.773 0 2.456-.455 3.71-.83a11.112 11.112 0 0 1 3.171-.485h5.275c.659 0 1.316.065 1.962.194l4.631.927a9.582 9.582 0 0 0 1.962.19c3.24-.029 4.753-.239 6.897-1.311 2.067-1.033 3.998-1.39 5.714-1.389 2.77.002 3.28 3.518 1.065 5.179a3.615 3.615 0 0 1-.43.277l-8.144 4.442a9.998 9.998 0 0 0-5.111 10.193l.232 1.63c.067.468.101.941.101 1.414v5.946c0 .818-.1 1.632-.299 2.425l-2.33 9.324-2.288 9.151a3.063 3.063 0 0 1-1.602 1.996l-.193.097a2.63 2.63 0 0 1-3.806-2.352v-10.433a2.63 2.63 0 0 0-5.258 0v10.433a2.63 2.63 0 0 1-3.806 2.352l-.193-.097a3.063 3.063 0 0 1-1.602-1.996l-2.288-9.151-2.33-9.324a9.994 9.994 0 0 1-.299-2.425v-8.508a9.4 9.4 0 0 1 .128-1.546 9.405 9.405 0 0 0-5.385-10.108Z" fill="#FF9393" stroke="#fff" stroke-width="2"/></svg>