<svg width="180" height="180" viewBox="0 0 180 180" fill="none" xmlns="http://www.w3.org/2000/svg">
<circle cx="90" cy="90" r="90" fill="#FF9393"/>
<circle cx="75.1185" cy="40.5424" r="13.5424" stroke="white" stroke-width="2"/>
<path d="M119.068 115.898C119.068 127.564 117.935 137.914 113.847 145.33C111.817 149.013 109.061 151.963 105.343 154.002C101.618 156.044 96.8671 157.203 90.8016 157.203C80.0722 157.203 73.1779 152.654 68.9037 145.309C64.5806 137.881 62.8984 127.517 62.8984 115.898C62.8984 104.471 67.3286 94.1041 73.0935 86.593C75.9746 82.839 79.172 79.8215 82.2835 77.7502C85.4111 75.6683 88.3736 74.5933 90.8016 74.5933C93.2309 74.5933 96.2173 75.6693 99.3804 77.7529C102.527 79.8255 105.77 82.8444 108.696 86.5988C114.551 94.1114 119.068 104.477 119.068 115.898Z" stroke="white" stroke-width="2"/>
<path d="M95.2713 85.4914C95.2713 101.974 84.8504 114.898 72.4746 114.898C65.4439 114.898 60.181 112.681 56.6121 107.406C52.9824 102.04 50.9999 93.3654 51 80.2032C51 70.4591 53.5953 64.16 57.7854 60.2802C61.99 56.3871 67.9794 54.7626 75.1186 54.7626C81.4313 54.7626 86.3867 56.9221 89.8099 61.7109C93.2784 66.5633 95.2713 74.248 95.2713 85.4914Z" fill="#FF9393" stroke="white" stroke-width="2"/>
<path d="M117.881 108.373C118.644 112.187 118.644 120.882 118.644 122.102C118.644 123.323 117.627 130.238 117.118 133.543L115.261 140.509C114.474 143.458 113.068 146.206 111.135 148.568L110.808 148.968C108.453 151.846 105.331 153.998 101.803 155.173V155.173C100.828 155.498 99.8298 155.746 98.8163 155.915L98.0196 156.048C96.5175 156.298 94.9972 156.424 93.4744 156.424V156.424H91.1863" stroke="white" stroke-width="2"/>
<circle cx="106.848" cy="48.4744" r="13.5424" stroke="white" stroke-width="2"/>
<path d="M127.322 88.3576C127.322 101.592 118.924 111.476 109.492 111.476C100.059 111.476 91.6611 101.592 91.6611 88.3576C91.6611 81.4721 92.3338 75.8998 94.5617 71.7645C96.6831 67.8269 100.354 64.9488 107.024 63.6969C111.69 63.7652 116.722 66.5411 120.677 71.1299C124.657 75.7483 127.322 81.9627 127.322 88.3576Z" fill="#FF9393" stroke="white" stroke-width="4"/>
<circle cx="92.3048" cy="92.1016" r="12.2203" fill="#FF9393" stroke="white" stroke-width="2"/>
<path d="M72.4763 112.894L68.2388 110.968C65.8816 109.897 64.077 107.892 63.2582 105.436C62.0964 101.95 64.8464 99.5632 68.0343 101.389C72.4188 103.901 77.8783 106.644 83.0507 106.644C83.83 106.644 85.5281 106.185 86.7909 105.807C87.8208 105.5 88.8868 105.322 89.9616 105.322H95.2809C95.9394 105.322 96.5963 105.387 97.242 105.516L101.91 106.45C102.556 106.579 103.214 106.646 103.872 106.64C107.134 106.611 108.656 106.401 110.813 105.322C112.891 104.283 114.833 103.924 116.559 103.925C119.344 103.927 119.858 107.462 117.63 109.133C117.493 109.236 117.348 109.329 117.197 109.411L108.974 113.897C105.31 115.895 103.272 119.959 103.863 124.09L104.103 125.771C104.17 126.239 104.203 126.712 104.203 127.185V133.176C104.203 133.993 104.103 134.808 103.905 135.601L101.559 144.983L99.2587 154.185C99.0406 155.057 98.4524 155.79 97.6483 156.193L97.4535 156.29C96.7092 156.662 95.833 156.662 95.0886 156.29C94.1928 155.842 93.627 154.926 93.627 153.925V143.434C93.627 142.733 93.3484 142.06 92.8526 141.564C91.82 140.532 90.1459 140.532 89.1133 141.564C88.6174 142.06 88.3389 142.733 88.3389 143.434V153.925C88.3389 154.926 87.773 155.842 86.8773 156.29C86.1329 156.662 85.2567 156.662 84.5123 156.29L84.3176 156.193C83.5135 155.79 82.9252 155.057 82.7072 154.185L80.4067 144.983L78.0612 135.601C77.8629 134.808 77.7626 133.993 77.7626 133.176V124.613C77.7626 124.092 77.8056 123.572 77.8913 123.058C78.5951 118.835 76.374 114.666 72.4763 112.894Z" fill="#FF9393" stroke="white" stroke-width="2"/>
</svg>
