<svg xmlns="http://www.w3.org/2000/svg" fill="none" viewBox="0 0 473 567">
  <circle cx="236.5" cy="330.244" r="236.5" fill="url(#a)"/>
  <path stroke="#FF6258" stroke-width="3" d="m154.676 51.3918-1.834-6.1145c-1.469-4.8975-1.59-10.1007-.35-15.0613.991-3.9655 2.826-7.6705 5.38-10.8624L162.154 14M137 32.356c1.586.4532 5.439 2.1755 8.158 5.4388 2.72 3.2633 7.025 10.4244 8.838 13.597"/>
  <path fill="url(#b)" stroke="#000" stroke-opacity=".05" d="m335.334 161.342-7.054 9.321-26.45 30.659c-2.297 2.662-4.202 5.639-5.657 8.84-6.764 14.881-2.939 32.438 9.403 43.156l3.67 3.187c.9.782 1.674 1.697 2.296 2.714 3.528 5.773 1.394 13.328-4.633 16.404l-187.343 95.596h-3.714c-15.19 0-29.9181-5.223-41.7139-14.793-11.53-9.354-19.581-22.313-22.8597-36.794l-1.725-7.619c-6.0035-26.515.7509-54.312 18.2527-75.116l3.6407-4.328c3.0558-3.632 6.6279-6.797 10.6023-9.392 16.5197-10.789 24.8649-30.504 21.1109-49.874l-7.3544-37.949c-2.2648-11.687-2.0915-23.715.5093-35.332l2.9275-13.0761c2.1606-9.6495 7.3736-18.3456 14.8666-24.7979 8.345-7.186 18.992-11.1383 30.005-11.1383h9.444c.227-7.4783 4.487-24.8825 19.716-34.6724 4.426-2.8452 9.508-5.3321 14.587-7.45259 17.748-7.40944 37.31-8.599299 56.536-8.0775 4.723.128203 9.422.72966 14.026 1.79535l11.504 2.66319c10.284 2.38045 20.125 6.37395 29.159 11.83215l10.82 6.5368c5.438 3.2856 10.546 7.0891 15.252 11.3576l3.005 2.7257c12.488 11.3256 21.335 26.1005 25.424 42.4554 3.468 13.8736 3.39 28.3966-.229 42.2326l-1.018 3.894c-3.317 12.682-9.095 24.589-17.006 35.042Z"/>
  <g filter="url(#c)">
    <mask id="d" fill="#fff">
      <path fill-rule="evenodd" d="M311.602 201.955c7.353-6.444 16.678-14.617 16.678-25.852 0-11.143-3.438-22.596-8.028-37.889-1.865-6.212-3.92-13.059-6.012-20.776-45.55 4.08-70.239-5.218-87.021-27.8735v.2693c0 26.2682 0 29.6912-9.075 42.7582-10.235 14.738-44.87 18.356-63.906 13.597-5.439 10.198-4.079 27.874 18.356 27.874 0 0 12.917 0 24.475 18.356.847 1.346 1.715 2.669 2.6 3.967.237.706.447 1.423.628 2.148l.851 3.402 2.719 22.436v10.074c0 5.927-1.054 11.807-3.112 17.365l-3.686 9.952-10.198 25.155 40.791 36.032 13.597-53.028 5.171-12.605c3.747-9.132 9.688-17.199 17.298-23.485l4.045-3.342 2.856-1.632c10.5-3.242 19.106-9.356 32.741-19.469 1.189-.882 2.266-1.91 3.314-2.955 1.406-1.401 3.102-2.888 4.918-4.479Z" clip-rule="evenodd"/>
    </mask>
    <path fill="#FAECCE" fill-rule="evenodd" d="M311.602 201.955c7.353-6.444 16.678-14.617 16.678-25.852 0-11.143-3.438-22.596-8.028-37.889-1.865-6.212-3.92-13.059-6.012-20.776-45.55 4.08-70.239-5.218-87.021-27.8735v.2693c0 26.2682 0 29.6912-9.075 42.7582-10.235 14.738-44.87 18.356-63.906 13.597-5.439 10.198-4.079 27.874 18.356 27.874 0 0 12.917 0 24.475 18.356.847 1.346 1.715 2.669 2.6 3.967.237.706.447 1.423.628 2.148l.851 3.402 2.719 22.436v10.074c0 5.927-1.054 11.807-3.112 17.365l-3.686 9.952-10.198 25.155 40.791 36.032 13.597-53.028 5.171-12.605c3.747-9.132 9.688-17.199 17.298-23.485l4.045-3.342 2.856-1.632c10.5-3.242 19.106-9.356 32.741-19.469 1.189-.882 2.266-1.91 3.314-2.955 1.406-1.401 3.102-2.888 4.918-4.479Z" clip-rule="evenodd"/>
    <path fill="#000" fill-opacity=".02" d="m311.602 201.955-.659-.753.659.753Zm8.65-63.741.958-.287-.958.287Zm-6.012-20.776.965-.261-.219-.809-.835.074.089.996Zm-87.021-27.8735.804-.5952-1.804-2.4348v3.03h1Zm0 .2693h-1 1Zm-9.075 42.7582.822.571-.822-.571Zm-63.906 13.597.243-.97-.758-.189-.367.689.882.47Zm42.831 46.23.846-.533-.846.533Zm2.6 3.967.948-.319-.044-.131-.078-.114-.826.564Zm1.479 5.55.993-.12-.008-.062-.015-.06-.97.242Zm2.719 22.436h1v-.061l-.007-.06-.993.121Zm0 10.074h-1 1Zm-3.112 17.365.938.348-.938-.348Zm-3.686 9.952.927.376.005-.014.006-.014-.938-.348Zm-10.198 25.155-.927-.376-.266.656.531.469.662-.749Zm40.791 36.032-.662.749 1.225 1.082.406-1.583-.969-.248Zm13.597-53.028-.925-.38-.026.064-.018.067.969.249Zm5.171-12.605-.925-.38.925.38Zm17.298-23.485-.637-.771.637.771Zm4.045-3.342-.496-.868-.074.043-.067.054.637.771Zm2.856-1.632-.295-.955-.105.032-.096.055.496.868Zm32.741-19.469.596.803-.596-.803Zm3.314-2.955.706.708-.706-.708Zm20.596-30.331c0 5.323-2.205 9.966-5.376 14.115-3.18 4.161-7.272 7.752-10.961 10.984l1.318 1.505c3.664-3.211 7.911-6.929 11.232-11.275 3.33-4.357 5.787-9.418 5.787-15.329h-2Zm-7.986-37.601c4.603 15.335 7.986 26.635 7.986 37.601h2c0-11.321-3.493-22.927-8.07-38.176l-1.916.575Zm-6.019-20.802c2.096 7.732 4.155 14.59 6.019 20.802l1.916-.575c-1.865-6.214-3.917-13.048-6.005-20.75l-1.93.523Zm-86.86-27.5403c8.505 11.4803 19.038 19.6003 33.211 24.3163 14.144 4.706 31.857 6.004 54.703 3.958l-.178-1.992c-22.704 2.034-40.111.722-53.894-3.864-13.754-4.577-23.957-12.434-32.234-23.6087l-1.608 1.1904Zm1.804-.3259v-.2693h-2v.2693h2Zm-9.253 43.3292c4.562-6.57 6.925-10.829 8.1-16.807 1.158-5.892 1.153-13.436 1.153-26.5222h-2c0 13.1822-.005 20.4842-1.115 26.1372-1.095 5.568-3.269 9.553-7.781 16.051l1.643 1.141Zm-64.97 13.997c9.678 2.419 23.24 2.698 35.668.527 6.22-1.087 12.194-2.794 17.278-5.178 5.077-2.381 9.329-5.467 12.024-9.346l-1.643-1.141c-2.424 3.489-6.339 6.382-11.23 8.676-4.883 2.29-10.677 3.954-16.774 5.019-12.207 2.133-25.481 1.842-34.838-.498l-.485 1.941Zm18.598 25.903c-10.927 0-16.446-4.272-18.713-9.51-2.314-5.347-1.374-11.992 1.24-16.893l-1.765-.941c-2.825 5.296-3.925 12.589-1.31 18.629 2.661 6.149 9.04 10.715 20.548 10.715v-2Zm25.321 18.823c-5.873-9.328-12.129-14.046-16.977-16.426-2.419-1.188-4.476-1.787-5.943-2.089-.733-.151-1.319-.228-1.728-.267-.205-.02-.366-.03-.479-.035-.057-.003-.101-.004-.134-.005-.016 0-.029 0-.039-.001h-.019c-.001 0-.002 0-.002 1s0 1-.001 1h-.002.001c.003 0 .008 0 .017.001.017 0 .046.001.087.003.082.003.21.011.381.028.342.032.856.099 1.514.235 1.317.271 3.211.819 5.466 1.925 4.5 2.21 10.481 6.669 16.166 15.697l1.692-1.066Zm2.58 3.936c-.878-1.287-1.739-2.6-2.58-3.936l-1.692 1.066c.854 1.357 1.728 2.69 2.62 3.997l1.652-1.127Zm.773 2.47c-.188-.751-.405-1.493-.651-2.225l-1.896.637c.229.682.431 1.373.606 2.073l1.941-.485Zm.85 3.402-.85-3.402-1.941.485.851 3.402 1.94-.485Zm2.742 22.557-2.719-22.435-1.986.241 2.72 22.435 1.985-.241Zm.007 10.195v-10.074h-2v10.074h2Zm-3.174 17.713c2.099-5.67 3.174-11.668 3.174-17.713h-2c0 5.808-1.033 11.571-3.05 17.018l1.876.695Zm-3.686 9.952 3.686-9.952-1.876-.695-3.686 9.952 1.876.695Zm-10.209 25.183 10.198-25.155-1.854-.751-10.198 25.154 1.854.752Zm40.526 34.906-40.791-36.032-1.324 1.499L227 323.699l1.324-1.499Zm11.966-52.527-13.597 53.029 1.938.496 13.597-53.028-1.938-.497Zm5.215-12.736-5.171 12.605 1.85.759 5.172-12.605-1.851-.759Zm17.586-23.876c-7.737 6.391-13.777 14.592-17.586 23.876l1.851.759c3.683-8.979 9.526-16.911 17.008-23.093l-1.273-1.542Zm4.045-3.342-4.045 3.342 1.273 1.542 4.046-3.342-1.274-1.542Zm2.997-1.729-2.856 1.632.992 1.736 2.856-1.631-.992-1.737Zm32.641-19.405c-13.659 10.132-22.131 16.134-32.44 19.318l.59 1.911c10.69-3.301 19.432-9.527 33.042-19.622l-1.192-1.607Zm3.204-2.859c-1.042 1.039-2.076 2.023-3.204 2.859l1.192 1.607c1.25-.928 2.37-1.999 3.424-3.05l-1.412-1.416Zm4.965-4.524c-1.81 1.586-3.532 3.095-4.965 4.524l1.412 1.416c1.378-1.374 3.048-2.838 4.871-4.435l-1.318-1.505Z" mask="url(#d)"/>
  </g>
  <path stroke="#A37678" d="M241.259 155.707v.311c0 5.836-4.731 10.567-10.566 10.567-1.981 0-3.921-.557-5.601-1.607l-.842-.526c-1.341-.838-2.531-1.898-3.52-3.133l-1.226-1.533m0 0-.411-2.465c-.137-.821-1.008-1.297-1.773-.969-2.16.925-4.436 1.55-6.766 1.857l-1.649.217m10.599 1.36c-2.176 1.632-5.439 2.946-6.799 3.399m77.503-21.755c2.166 3.464 5.722 5.744 9.803 5.561 1.259-.056 2.228-.122 2.435-.122.68 0 3.399-1.36 4.759-3.399.996-1.495.928-3.674 1.257-6.119.056-.414.364-.745.769-.846 1.355-.339 2.628-.945 3.746-1.783l1.026-.77m-40.791 19.715c-.226 1.36-.408 4.759.68 7.479 1.36 3.399 2.719 6.118 4.079 8.158.43.645.804 1.383 1.112 2.095.746 1.722 1.608 3.506 1.608 5.383 0 .498-.191 1.111-.44 1.693-.501 1.169-1.519 2.006-2.656 2.575-.652.326-1.349.552-2.068.672l-.874.146c-1.393.232-2.821.12-4.16-.327"/>
  <path stroke="#A37678" d="M307.885 140.07c.226.227 1.087.544 2.719 0s2.039-.68 2.039-.68"/>
  <path stroke="#551313" stroke-opacity=".5" d="M267.773 208.735c0 1.36-.679 2.04-2.039 3.399-.68.68-2.176 1.601-3.399 2.04-.856.307-1.708.407-2.452.472-1.086.096-2.18.208-3.271.208-2.041 0-4.048-.533-5.821-1.546l-.194-.111c-1.231-.704-2.334-1.61-3.262-2.681l-1.545-1.781-1.473-2.01c-.672-.917-1.16-1.957-1.436-3.06l-.219-.875c-.028-.116-.043-.295-.043-.414 0-.801-.649-1.119-1.451-1.119h-1.948"/>
  <g filter="url(#e)">
    <path fill="#fff" d="M394.226 320.429v-7.423c0-1.955 2.432-2.855 3.705-1.37l4.837 5.644c7.834 9.139 13.9 19.655 17.89 31.011l.337.958c1.64 4.669 2.932 9.454 3.864 14.314l4.429 23.091c2.436 12.704 2.384 25.761-.153 38.446l-2.869 14.347c-1.856 9.28-5.368 18.15-10.368 26.186l-6.473 10.403c-3.273 5.261-7.909 9.539-13.415 12.381-8.107 4.184-17.544 4.973-26.233 2.192l-10.267-3.285c-6.704-2.145-12.92-5.59-18.294-10.136-6.274-5.309-11.243-11.989-14.525-19.524l-7.404-17.002c-3.912-8.983-5.481-18.812-4.561-28.567 1.289-13.661 7.386-26.422 17.206-36.007l13.344-13.027 12.917 14.957 11.558 10.197c0-.645 1.594-6.584 3.365-12.965 2.21-7.965 2.153-16.396-.254-24.304l-.735-2.415c-.224-.736-.385-1.491-.48-2.255l-1.053-8.422c-.448-3.582 2.345-6.746 5.955-6.746h6.997c4.045 0 7.743-2.285 9.552-5.903.742-1.483 1.128-3.118 1.128-4.776Z"/>
    <path stroke="#000" stroke-opacity=".1" d="M369.751 388.216c0-.646 1.594-6.585 3.365-12.966 2.21-7.965 2.153-16.396-.254-24.304l-.735-2.415c-.224-.736-.385-1.491-.48-2.255l-1.053-8.422c-.448-3.582 2.345-6.746 5.955-6.746h6.997c4.045 0 7.743-2.285 9.552-5.903.742-1.483 1.128-3.118 1.128-4.776v-7.423c0-1.955 2.432-2.855 3.705-1.37l4.837 5.644c7.834 9.139 13.9 19.655 17.89 31.011l.337.958c1.64 4.669 2.932 9.454 3.864 14.314l4.429 23.091c2.436 12.704 2.384 25.761-.153 38.446l-2.869 14.347c-1.856 9.28-5.368 18.15-10.368 26.186l-6.473 10.403c-3.273 5.261-7.909 9.539-13.415 12.381-8.107 4.184-17.544 4.973-26.233 2.192l-10.267-3.285c-6.704-2.145-12.92-5.59-18.294-10.136-6.274-5.309-11.243-11.989-14.525-19.524l-7.404-17.002c-3.912-8.983-5.481-18.812-4.561-28.567 1.289-13.661 7.386-26.422 17.206-36.007l13.344-13.027 12.917 14.957 11.558 10.198Zm0 0c0 1.087-5.439 12.237-8.158 17.676"/>
    <path fill="#fff" d="M142.681 447.362c-5.336-38.772 25.45-73.043 64.571-71.88l108.111 3.215 6.798 47.59 8.838 33.313 9.315 32.876c1.493 5.267 3.415 10.404 5.749 15.356l12.326 26.165-20.922 10.006-22.104 9.096-10.519 4.259c-7.932 3.212-16.244 5.392-24.731 6.487l-15.415 1.989-30.927.91-19.557-.91-23.195-3.638-22.74-5.458-22.74-8.187-13.645-6.367 8.132-34.582c1.764-7.502 2.655-15.183 2.655-22.889v-37.351Z"/>
    <path stroke="#000" stroke-opacity=".1" d="M143.181 447.362v-.034l-.005-.034c-5.294-38.466 25.249-72.466 64.061-71.312l107.69 3.203 6.739 47.173.004.029.008.028 8.838 33.313.002.008 9.315 32.876c1.5 5.294 3.432 10.456 5.777 15.434l12.114 25.715-20.46 9.785-22.089 9.09-.002.001-10.517 4.258c-7.892 3.195-16.163 5.365-24.607 6.454l-15.39 1.986-30.883.908-19.511-.907-23.148-3.631-22.695-5.447-22.693-8.169-13.255-6.186 8.038-34.186c1.773-7.54 2.669-15.259 2.669-23.004v-37.351Z"/>
    <circle cx="255.536" cy="415.41" r="5.43881" fill="#C4C4C4"/>
    <path fill="#686565" d="M256.896 415.41c0 .751-.609 1.359-1.36 1.359-.751 0-1.36-.608-1.36-1.359s.609-1.36 1.36-1.36c.751 0 1.36.609 1.36 1.36Z"/>
    <circle cx="263.694" cy="465.719" r="5.43881" fill="#C4C4C4"/>
    <path fill="#686565" d="M265.054 465.718c0 .751-.609 1.359-1.36 1.359-.751 0-1.36-.608-1.36-1.359s.609-1.36 1.36-1.36c.751 0 1.36.609 1.36 1.36Z"/>
    <circle cx="277.291" cy="514.668" r="5.43881" fill="#C4C4C4"/>
    <path fill="#686565" d="M278.651 514.668c0 .751-.609 1.36-1.36 1.36-.751 0-1.36-.609-1.36-1.36 0-.751.609-1.359 1.36-1.359.751 0 1.36.608 1.36 1.359Z"/>
  </g>
  <g filter="url(#f)">
    <path fill="#fff" d="m344.596 235.25 32.201-53.296v12.716l-32.201 40.58Z"/>
    <path stroke="#000" stroke-opacity=".2" stroke-width=".2" d="m376.697 194.635-31.204 39.323 31.204-51.645v12.322Z"/>
    <path fill="#fff" d="m341.197 240.109 38.32-56.796v15.224l-38.32 41.572Z"/>
    <path stroke="#000" stroke-opacity=".2" stroke-width=".2" d="m379.417 198.498-37.398 40.572 37.398-55.43v14.858Z"/>
    <path fill="#fff" d="m317.402 252.926-79.542-8.159 4.079 5.439 75.463 2.72Z"/>
    <path stroke="#000" stroke-opacity=".2" stroke-width=".2" d="m241.99 250.108 72.397 2.609-76.31-7.827 3.913 5.218Z"/>
    <path fill="#AB3828" d="m227.662 246.807 93.82 6.118-2.72 142.769-91.1-21.755V246.807Z"/>
    <path stroke="#000" stroke-opacity=".05" d="M228.162 373.544V247.34l92.811 6.053-2.699 141.67-90.112-21.519Z"/>
    <path fill="#fff" d="m343.917 235.25 32.201-53.296v12.716l-32.201 40.58Z"/>
    <path stroke="#000" stroke-opacity=".2" stroke-width=".2" d="m376.018 194.635-31.204 39.323 31.204-51.645v12.322Z"/>
    <path fill="#fff" d="m340.517 240.109 38.32-56.796v15.224l-38.32 41.572Z"/>
    <path stroke="#000" stroke-opacity=".2" stroke-width=".2" d="m378.737 198.498-37.398 40.572 37.398-55.43v14.858Z"/>
    <path fill="#fff" d="m316.723 252.926-79.543-8.159 4.079 5.439 75.464 2.72Z"/>
    <path stroke="#000" stroke-opacity=".2" stroke-width=".2" d="m241.31 250.108 72.397 2.609-76.31-7.827 3.913 5.218Z"/>
    <path fill="#A6C78E" d="m336.438 244.767 48.95-55.747v118.294L331 386l5.438-141.233Z"/>
    <path stroke="#000" stroke-opacity=".05" d="m331.566 384.302 5.365-139.338 47.957-54.617v116.811l-53.322 77.144Z"/>
    <path fill="#A6C78E" d="m226.982 246.807 93.82 6.118-2.72 142.769-91.1-21.755V246.807Z"/>
    <path stroke="#000" stroke-opacity=".05" d="M227.482 373.544V247.34l92.811 6.053-2.699 141.67-90.112-21.519Z"/>
    <path fill="#CAD99E" d="M320.111 254.19c.007-.361.207-.69.525-.861l15.629-8.416c.68-.365 1.5.144 1.474.915l-4.685 137.874c-.01.278-.134.539-.344.721l-13.609 11.834c-.654.569-1.673.093-1.656-.773l2.666-141.294Z"/>
    <path stroke="#000" stroke-opacity=".05" d="M320.611 254.2c.003-.181.104-.345.262-.431l15.629-8.415c.34-.183.75.071.737.457l-4.685 137.874c-.005.139-.067.27-.172.361l-13.609 11.834c-.327.285-.836.047-.828-.387l2.666-141.293Z"/>
  </g>
  <g filter="url(#g)">
    <path fill="#fff" d="m139.73 341.353 2.683-3.035c10.805-12.228 25.041-20.919 40.854-24.944l9.38-2.388c2.477-.631 5.042-.847 7.591-.64 12.035.975 21.305 11.028 21.305 23.103v15.336l6.282 3.695c3.454 2.032 7.389 3.104 11.397 3.104h2.96c.739 0 1.471.132 2.162.391 2.595.974 4.22 3.561 3.969 6.321l-1.943 21.366c-.234 2.575-.758 5.115-1.563 7.572l-8.011 24.455c-2.455 7.493-5.787 14.669-9.928 21.38l-7.915 12.828c-3.701 5.999-8.027 11.59-12.905 16.68l-13.28 13.857c-7.044 7.351-15.377 13.347-24.585 17.69l-11.171 5.27c-7.137 3.366-15.092 4.61-22.916 3.584-17.602-2.308-31.741-15.64-35.08-33.075l-.5256-2.745-.1928-.79c-4.3214-17.718-3.7153-36.28 1.7524-53.679l3.44-10.943c2.1-6.682 4.896-13.125 8.343-19.223l16.45-29.104c3.244-5.74 7.081-11.125 11.447-16.066Z"/>
    <path stroke="#000" stroke-opacity=".1" d="m221.543 348.785 6.282 3.695c3.454 2.032 7.389 3.104 11.397 3.104h2.96c.739 0 1.471.132 2.162.391 2.595.974 4.22 3.561 3.969 6.321l-1.943 21.366c-.234 2.575-.758 5.115-1.563 7.572l-8.011 24.455c-2.455 7.493-5.787 14.669-9.928 21.38l-7.915 12.828c-3.701 5.999-8.027 11.59-12.905 16.68l-13.28 13.857c-7.044 7.351-15.377 13.347-24.585 17.69l-11.171 5.27c-7.137 3.366-15.092 4.61-22.916 3.584-17.602-2.308-31.741-15.64-35.08-33.075l-.5256-2.745-.1928-.79c-4.3214-17.718-3.7153-36.28 1.7524-53.679l3.44-10.943c2.1-6.682 4.896-13.125 8.343-19.223l16.45-29.104c3.244-5.74 7.081-11.125 11.447-16.066l2.683-3.035c10.805-12.228 25.041-20.919 40.854-24.944l9.38-2.388c2.477-.631 5.042-.847 7.591-.64 12.035.975 21.305 11.028 21.305 23.103v15.336Zm0 0c-8.55 4.5-16.279 10.41-22.863 17.482l-8.41 9.032-19.191 21.266c-3.967 4.397-7.537 9.137-10.666 14.166l-14.333 23.035"/>
    <path fill="#fff" stroke="#000" stroke-opacity=".1" d="m189.817 284.46 4.831 1.13 9.828 3.099c8.221 2.592 15.11 8.283 19.207 15.867.86 1.592 1.589 3.252 2.178 4.963l14.394 41.793c.262.76-.435 1.503-1.211 1.29l-21.422-5.89-14.1-3.956-15.173-3.903c-.751-.193-1.006-1.131-.455-1.678l4.93-4.894 9.603-11.241c.849-.994 1.251-2.293 1.112-3.593-.28-2.609-2.622-4.496-5.231-4.216l-1.548.166c-.769.083-1.517.306-2.206.66l-15.807 8.112-14.463 6.401c-.918.406-1.965-.198-2.072-1.196l-.102-.949c-.368-3.424-.452-6.873-.252-10.311l.309-5.307c.233-3.994 1.184-7.914 2.807-11.571l1.377-3.102c1.458-3.282 3.749-6.125 6.648-8.246 4.837-3.541 10.98-4.793 16.818-3.428Z"/>
  </g>
  <path fill="#fff" d="m277.518 405.251 33.483-5.867 6.647 37.932c.476 2.72-1.342 5.312-4.062 5.788l-23.633 4.142c-2.72.476-5.311-1.342-5.788-4.062l-6.647-37.933Z"/>
  <path stroke="#000" stroke-opacity=".1" d="m278.097 405.657 32.497-5.694 6.561 37.44c.429 2.448-1.207 4.78-3.655 5.209l-23.633 4.141c-2.448.429-4.78-1.208-5.209-3.656l-6.561-37.44Z"/>
  <path fill="#fff" d="m277.518 405.251 33.483-5.867 1.001 5.711c.095.544-.269 1.063-.813 1.158l-31.512 5.522c-.544.095-1.063-.268-1.158-.812l-1.001-5.712Z"/>
  <path stroke="#000" stroke-opacity=".1" d="m278.097 405.657 32.497-5.694.915 5.219c.048.272-.134.531-.406.578l-31.513 5.523c-.272.047-.531-.135-.578-.407l-.915-5.219Zm-34.118-12.683 7.478 48.269 8.838 45.55 15.319 76.312"/>
  <g filter="url(#h)">
    <path fill="#FAECCE" d="M222.903 335.187v13.623c0 .413.188.804.511 1.063l.952.762c3.483 2.786 7.697 4.504 12.134 4.948h2.719c2.236 0 4.441.52 6.44 1.52l.838.419c.104.052.229-.004.26-.116l.119-.438c1.236-4.531 3.04-8.887 5.371-12.965l1.929-3.377 6.119-12.237 8.838-15.637 3.909-8.469c.112-.243.17-.508.17-.775v-.357c0-1.211-1.274-1.999-2.357-1.457-.238.118-.443.294-.598.51l-3.164 4.429-5.175 7.764c-.174.261-.397.484-.658.658l-.583.388c-1.326.884-3.102-.066-3.102-1.66 0-.232.041-.463.121-.681l2.599-7.148 2.719-7.479 1.93-7.074c.072-.266.086-.545.041-.817l-.009-.057c-.252-1.511-2.106-2.105-3.19-1.022-.087.088-.166.184-.235.287l-3.976 5.964-3.57 7.141c-.339.677-.73 1.326-1.169 1.942l-2.502 3.502c-.154.216-.372.377-.624.461-.813.271-1.621-.333-1.528-1.184.168-1.538.53-3.93 1.235-7.103.029-.13.058-.258.086-.383.811-3.566 2.734-8.076 3.891-11.546l.631-1.895c.099-.296.111-.614.035-.916l-.05-.204c-.251-1-1.416-1.451-2.274-.879-.184.123-.338.284-.452.474l-1.867 3.112-4.759 8.838-4.041 7.408c-.025.046-.054.091-.086.134l-.032.043c-.628.837-1.959.393-1.959-.653 0-.089.011-.178.032-.264l2.007-8.028 2.579-8.382c.092-.3.108-.621.046-.928-.269-1.345-1.855-1.975-2.952-1.152-.232.174-.42.399-.55.658l-4.562 9.124-3.568 6.74c-1.698 3.207-3.152 6.537-4.351 9.962-1.965 5.614-3.231 11.448-3.769 17.371l-.549 6.038Z"/>
  </g>
  <path stroke="#000" stroke-opacity=".02" d="M222.903 335.187v13.623c0 .413.188.804.511 1.063l.952.762c3.483 2.786 7.697 4.504 12.134 4.948h2.719c2.236 0 4.441.52 6.44 1.52l.838.419c.104.052.229-.004.26-.116l.119-.438c1.236-4.531 3.04-8.887 5.371-12.965l1.929-3.377 6.119-12.237 8.838-15.637 3.909-8.469c.112-.243.17-.508.17-.775v-.357c0-1.211-1.274-1.999-2.357-1.457-.238.118-.443.294-.598.51l-3.164 4.429-5.175 7.764c-.174.261-.397.484-.658.658l-.583.388c-1.326.884-3.102-.066-3.102-1.66 0-.232.041-.463.121-.681l2.599-7.148 2.719-7.479 1.93-7.074c.072-.266.086-.545.041-.817l-.009-.057c-.252-1.511-2.106-2.105-3.19-1.022-.087.088-.166.184-.235.287l-3.976 5.964-3.57 7.141c-.339.677-.73 1.326-1.169 1.942l-2.502 3.502c-.154.216-.372.377-.624.461-.813.271-1.621-.333-1.528-1.184.168-1.538.53-3.93 1.235-7.103.029-.13.058-.258.086-.383.811-3.566 2.734-8.076 3.891-11.546l.631-1.895c.099-.296.111-.614.035-.916l-.05-.204c-.251-1-1.416-1.451-2.274-.879-.184.123-.338.284-.452.474l-1.867 3.112-4.759 8.838-4.041 7.408c-.025.046-.054.091-.086.134l-.032.043c-.628.837-1.959.393-1.959-.653 0-.089.011-.178.032-.264l2.007-8.028 2.579-8.382c.092-.3.108-.621.046-.928-.269-1.345-1.855-1.975-2.952-1.152-.232.174-.42.399-.55.658l-4.562 9.124-3.568 6.74c-1.698 3.207-3.152 6.537-4.351 9.962-1.965 5.614-3.231 11.448-3.769 17.371l-.549 6.038Z"/>
  <g filter="url(#i)">
    <path fill="#FAECCE" d="m394.153 297.624.22 2.211v15.369c0 3.335-.464 6.653-1.379 9.86-.788 2.622-2.991 4.572-5.689 5.035l-1.153.198c-.509.087-1.024.131-1.54.131h-7.186c-.118 0-.222-.075-.26-.186l-.515-1.519c-.819-2.415-2.107-4.645-3.79-6.562-1.125-1.281-2.076-2.706-2.829-4.237l-2.951-6.003c-.84-1.709-1.524-3.49-2.043-5.321-.762-2.685-1.876-5.258-3.313-7.651l-4.505-7.503-2.284-5.18c-.094-.212-.142-.441-.142-.672v-.237c0-1.132 1.194-1.867 2.205-1.357.146.073.279.17.395.287l.957.965c.457.461.868.965 1.226 1.507l4.08 6.169c.153.232.352.432.583.587l.503.338c1.188.798 2.785-.053 2.785-1.483 0-.207-.036-.412-.106-.607l-2.32-6.43-2.425-6.723-1.785-7.795c-.023-.1-.034-.203-.034-.307 0-1.422 1.894-1.909 2.58-.664l.452.82 3.638 5.501 3.187 6.426c.3.605.647 1.185 1.037 1.736l2.235 3.154c.137.193.331.338.556.413.724.244 1.446-.294 1.364-1.054-.149-1.381-.473-3.536-1.103-6.396-.025-.112-.049-.221-.073-.328-.724-3.213-2.445-7.286-3.479-10.414l-.559-1.692c-.087-.263-.098-.545-.032-.814l.049-.196c.222-.893 1.263-1.295 2.027-.781.163.109.3.253.4.422l1.667 2.8 4.244 7.946 3.605 6.662c.022.041.048.081.076.119l.046.062c.552.742 1.731.351 1.731-.574 0-.103-.017-.206-.05-.305l-3.589-10.71-2.071-7.93c-.04-.151-.051-.308-.033-.463.118-1.028 1.357-1.484 2.113-.777l1.487 1.389c.214.2.387.439.511.704l4.663 9.99c3.605 6.863 5.851 14.356 6.616 22.07Z"/>
  </g>
  <path stroke="#000" stroke-opacity=".02" d="m394.153 297.624.22 2.211v15.369c0 3.335-.464 6.653-1.379 9.86-.788 2.622-2.991 4.572-5.689 5.035l-1.153.198c-.509.087-1.024.131-1.54.131h-7.186c-.118 0-.222-.075-.26-.186l-.515-1.519c-.819-2.415-2.107-4.645-3.79-6.562-1.125-1.281-2.076-2.706-2.829-4.237l-2.951-6.003c-.84-1.709-1.524-3.49-2.043-5.321-.762-2.685-1.876-5.258-3.313-7.651l-4.505-7.503-2.284-5.18c-.094-.212-.142-.441-.142-.672v-.237c0-1.132 1.194-1.867 2.205-1.357.146.073.279.17.395.287l.957.965c.457.461.868.965 1.226 1.507l4.08 6.169c.153.232.352.432.583.587l.503.338c1.188.798 2.785-.053 2.785-1.483 0-.207-.036-.412-.106-.607l-2.32-6.43-2.425-6.723-1.785-7.795c-.023-.1-.034-.203-.034-.307 0-1.422 1.894-1.909 2.58-.664l.452.82 3.638 5.501 3.187 6.426c.3.605.647 1.185 1.037 1.736l2.235 3.154c.137.193.331.338.556.413.724.244 1.446-.294 1.364-1.054-.149-1.381-.473-3.536-1.103-6.396-.025-.112-.049-.221-.073-.328-.724-3.213-2.445-7.286-3.479-10.414l-.559-1.692c-.087-.263-.098-.545-.032-.814l.049-.196c.222-.893 1.263-1.295 2.027-.781.163.109.3.253.4.422l1.667 2.8 4.244 7.946 3.605 6.662c.022.041.048.081.076.119l.046.062c.552.742 1.731.351 1.731-.574 0-.103-.017-.206-.05-.305l-3.589-10.71-2.071-7.93c-.04-.151-.051-.308-.033-.463.118-1.028 1.357-1.484 2.113-.777l1.487 1.389c.214.2.387.439.511.704l4.663 9.99c3.605 6.863 5.851 14.356 6.616 22.07Z"/>
  <defs>
    <filter id="c" width="184.716" height="241.385" x="147.564" y="89.5645" color-interpolation-filters="sRGB" filterUnits="userSpaceOnUse">
      <feFlood flood-opacity="0" result="BackgroundImageFix"/>
      <feColorMatrix in="SourceAlpha" result="hardAlpha" values="0 0 0 0 0 0 0 0 0 0 0 0 0 0 0 0 0 0 127 0"/>
      <feOffset dy="4"/>
      <feGaussianBlur stdDeviation="2"/>
      <feComposite in2="hardAlpha" operator="out"/>
      <feColorMatrix values="0 0 0 0 0 0 0 0 0 0 0 0 0 0 0 0 0 0 0.25 0"/>
      <feBlend in2="BackgroundImageFix" result="effect1_dropShadow_1772_383"/>
      <feBlend in="SourceGraphic" in2="effect1_dropShadow_1772_383" result="shape"/>
    </filter>
    <filter id="e" width="299.683" height="260.349" x="131.894" y="310.395" color-interpolation-filters="sRGB" filterUnits="userSpaceOnUse">
      <feFlood flood-opacity="0" result="BackgroundImageFix"/>
      <feBlend in="SourceGraphic" in2="BackgroundImageFix" result="shape"/>
      <feColorMatrix in="SourceAlpha" result="hardAlpha" values="0 0 0 0 0 0 0 0 0 0 0 0 0 0 0 0 0 0 127 0"/>
      <feOffset dy="4"/>
      <feGaussianBlur stdDeviation="2"/>
      <feComposite in2="hardAlpha" k2="-1" k3="1" operator="arithmetic"/>
      <feColorMatrix values="0 0 0 0 0 0 0 0 0 0 0 0 0 0 0 0 0 0 0.25 0"/>
      <feBlend in2="shape" result="effect1_innerShadow_1772_383"/>
    </filter>
    <filter id="f" width="158.406" height="218.551" x="226.982" y="181.954" color-interpolation-filters="sRGB" filterUnits="userSpaceOnUse">
      <feFlood flood-opacity="0" result="BackgroundImageFix"/>
      <feBlend in="SourceGraphic" in2="BackgroundImageFix" result="shape"/>
      <feColorMatrix in="SourceAlpha" result="hardAlpha" values="0 0 0 0 0 0 0 0 0 0 0 0 0 0 0 0 0 0 127 0"/>
      <feOffset dy="4"/>
      <feGaussianBlur stdDeviation="2"/>
      <feComposite in2="hardAlpha" k2="-1" k3="1" operator="arithmetic"/>
      <feColorMatrix values="0 0 0 0 0 0 0 0 0 0 0 0 0 0 0 0 0 0 0.25 0"/>
      <feBlend in2="shape" result="effect1_innerShadow_1772_383"/>
    </filter>
    <filter id="g" width="153.888" height="233.408" x="94.9497" y="274.42" color-interpolation-filters="sRGB" filterUnits="userSpaceOnUse">
      <feFlood flood-opacity="0" result="BackgroundImageFix"/>
      <feBlend in="SourceGraphic" in2="BackgroundImageFix" result="shape"/>
      <feColorMatrix in="SourceAlpha" result="hardAlpha" values="0 0 0 0 0 0 0 0 0 0 0 0 0 0 0 0 0 0 127 0"/>
      <feOffset dy="-9"/>
      <feGaussianBlur stdDeviation="5"/>
      <feComposite in2="hardAlpha" k2="-1" k3="1" operator="arithmetic"/>
      <feColorMatrix values="0 0 0 0 0 0 0 0 0 0 0 0 0 0 0 0 0 0 0.25 0"/>
      <feBlend in2="shape" result="effect1_innerShadow_1772_383"/>
    </filter>
    <filter id="h" width="51.3091" height="78.1014" x="222.403" y="283.94" color-interpolation-filters="sRGB" filterUnits="userSpaceOnUse">
      <feFlood flood-opacity="0" result="BackgroundImageFix"/>
      <feBlend in="SourceGraphic" in2="BackgroundImageFix" result="shape"/>
      <feColorMatrix in="SourceAlpha" result="hardAlpha" values="0 0 0 0 0 0 0 0 0 0 0 0 0 0 0 0 0 0 127 0"/>
      <feOffset dy="4"/>
      <feGaussianBlur stdDeviation="2"/>
      <feComposite in2="hardAlpha" k2="-1" k3="1" operator="arithmetic"/>
      <feColorMatrix values="0 0 0 0 0 0 0 0 0 0 0 0 0 0 0 0 0 0 0.25 0"/>
      <feBlend in2="shape" result="effect1_innerShadow_1772_383"/>
    </filter>
    <filter id="i" width="40.5784" height="72.299" x="354.294" y="262.629" color-interpolation-filters="sRGB" filterUnits="userSpaceOnUse">
      <feFlood flood-opacity="0" result="BackgroundImageFix"/>
      <feBlend in="SourceGraphic" in2="BackgroundImageFix" result="shape"/>
      <feColorMatrix in="SourceAlpha" result="hardAlpha" values="0 0 0 0 0 0 0 0 0 0 0 0 0 0 0 0 0 0 127 0"/>
      <feOffset dy="4"/>
      <feGaussianBlur stdDeviation="2"/>
      <feComposite in2="hardAlpha" k2="-1" k3="1" operator="arithmetic"/>
      <feColorMatrix values="0 0 0 0 0 0 0 0 0 0 0 0 0 0 0 0 0 0 0.25 0"/>
      <feBlend in2="shape" result="effect1_innerShadow_1772_383"/>
    </filter>
    <radialGradient id="a" cx="0" cy="0" r="1" gradientTransform="matrix(0 236.5 -236.5 0 236.5 330.244)" gradientUnits="userSpaceOnUse">
      <stop offset=".078125" stop-color="#FCCACB" stop-opacity="0"/>
      <stop offset=".895833" stop-color="#FCCACB"/>
    </radialGradient>
    <linearGradient id="b" x1="162.396" x2="359.553" y1="244.067" y2="-167.923" gradientUnits="userSpaceOnUse">
      <stop offset=".402446" stop-color="#FF6258"/>
      <stop offset=".663672" stop-color="#FF6258" stop-opacity=".360107"/>
      <stop offset=".986819" stop-color="#FF6258" stop-opacity="0"/>
    </linearGradient>
  </defs>
</svg>

