<svg width="180" height="186" viewBox="0 0 180 186" fill="none" xmlns="http://www.w3.org/2000/svg">
<ellipse cx="90" cy="92.9004" rx="90" ry="92.9004" fill="#FF9393"/>
<path d="M74.8288 113.283L88.238 111.306C90.554 110.964 92.8334 110.409 95.047 109.648L95.3516 109.543C97.7489 108.718 100.229 108.156 102.748 107.867L105.733 107.525C115.108 106.45 124.422 109.977 130.733 116.992L141.222 128.652C147.037 135.116 146.057 145.175 139.104 150.394L135.824 152.856C130.369 156.952 122.552 155.281 119.248 149.313V149.313C117.168 145.555 113.128 143.312 108.839 143.533L73.3447 145.365C69.666 145.555 66.0718 144.244 63.3517 141.76C54.7905 133.942 42.6807 123.246 41.0476 123.246C39.2559 123.246 33.1681 113.232 29.7302 107.147C29.2354 106.271 28.9829 105.283 28.9829 104.277V104.277C28.9829 100.998 31.6415 98.339 34.9211 98.339H36.2217M74.8288 113.283L47.0215 96.8812C43.5171 94.8141 39.0527 95.4167 36.2217 98.339V98.339M74.8288 113.283L55.5253 110.792M55.5253 110.792V110.792C54.1332 115.103 56.0645 119.788 60.0899 121.866L64.3671 124.073C66.4849 125.166 68.8336 125.737 71.2168 125.737H81.413C83.4528 125.737 85.4872 125.945 87.4848 126.357L93.1491 127.526C95.3619 127.983 97.3861 129.095 98.9583 130.718V130.718M55.5253 110.792L36.2217 98.339" stroke="white" stroke-width="2"/>
<path d="M89.1214 35.0008L91.7194 39.5596L94.3173 35.0008C95.7881 32.4199 97.7544 30.1551 100.103 28.3367L100.408 28.1011C104.161 25.1957 108.772 23.6191 113.519 23.6191C115.067 23.6191 116.612 23.7872 118.124 24.1203L118.438 24.1893C124.457 25.5148 129.607 29.3835 132.556 34.7958C134.26 37.9218 135.152 41.4249 135.152 44.985V45.8944C135.152 52.0756 132.85 58.0352 128.694 62.6109L92.4596 102.507C92.0628 102.944 91.3759 102.944 90.9791 102.507L55.6491 63.6068C50.9112 58.3902 48.2864 51.596 48.2864 44.5491V42.8804C48.2864 40.6835 48.6701 38.5034 49.4203 36.4385C51.7071 30.1437 57.1598 25.5331 63.7471 24.3243L65.6063 23.9832C66.926 23.741 68.2675 23.6191 69.6093 23.6191C74.5507 23.6191 79.4035 25.2927 83.3108 28.3177C85.6597 30.1361 87.6506 32.4199 89.1214 35.0008Z" stroke="white" stroke-width="2"/>
</svg>
