<?xml version="1.0" encoding="UTF-8" standalone="no"?>
<svg
   width="84"
   height="85"
   viewBox="0 0 84 85"
   fill="none"
   version="1.1"
   id="svg82"
   sodipodi:docname="wa.svg"
   inkscape:version="1.2.2 (b0a8486541, 2022-12-01)"
   xmlns:inkscape="http://www.inkscape.org/namespaces/inkscape"
   xmlns:sodipodi="http://sodipodi.sourceforge.net/DTD/sodipodi-0.dtd"
   xmlns="http://www.w3.org/2000/svg"
   xmlns:svg="http://www.w3.org/2000/svg">
  <defs
     id="defs86" />
  <sodipodi:namedview
     id="namedview84"
     pagecolor="#ffffff"
     bordercolor="#000000"
     borderopacity="0.25"
     inkscape:showpageshadow="2"
     inkscape:pageopacity="0.0"
     inkscape:pagecheckerboard="0"
     inkscape:deskcolor="#d1d1d1"
     showgrid="false"
     inkscape:zoom="8.71"
     inkscape:cx="14.006889"
     inkscape:cy="40.183697"
     inkscape:window-width="2554"
     inkscape:window-height="1053"
     inkscape:window-x="0"
     inkscape:window-y="0"
     inkscape:window-maximized="1"
     inkscape:current-layer="svg82" />
  <ellipse
     fill="#ffffff"
     id="ellipse76"
     ry="42.441708"
     rx="42.012928"
     cy="42.545879"
     cx="41.986881"
     style="stroke-width:0.84879" />
  <path
     fill-rule="evenodd"
     clip-rule="evenodd"
     d="M 42,85 C 18.804,85 0,65.9721 0,42.5 0,19.0279 18.804,0 42,0 65.196,0 84,19.0279 84,42.5 84,65.9721 65.196,85 42,85 Z M 43.3844,66.1451 C 57.1541,66.1394 68.3532,54.8042 68.3587,40.8735 68.3614,34.121 65.766,27.7717 61.0509,22.995 56.3357,18.2181 50.0651,15.5863 43.3841,15.5833 c -13.7657,0 -24.9692,11.3364 -24.9747,25.2703 -0.0019,4.454 1.1481,8.8015 3.3337,12.6341 L 18.2,66.5833 31.4394,63.069 c 3.6478,2.0134 7.7548,3.0746 11.9347,3.0761 z"
     fill="#a6c78e"
     id="path78" />
  <path
     fill-rule="evenodd"
     clip-rule="evenodd"
     d="m 32.0527,58.494 -7.8564,2.0854 2.097,-7.7512 -0.4936,-0.7947 C 23.7218,48.6893 22.6244,44.824 22.626,40.855 22.6305,29.2738 31.9425,19.8518 43.3925,19.8518 c 5.5444,0.002 10.7562,2.1896 14.6753,6.1599 3.9191,3.9704 6.0762,9.2477 6.074,14.8603 -0.0045,11.5821 -9.3164,21.0051 -20.7575,21.0051 H 43.3759 C 39.6511,61.8756 35.9977,60.863 32.8107,58.9492 Z M 55.9663,46.883 c -0.156,-0.2634 -0.5719,-0.4214 -1.1959,-0.7376 -0.6241,-0.316 -3.6921,-1.8435 -4.2642,-2.0544 -0.5719,-0.2106 -0.9881,-0.3159 -1.404,0.3161 -0.4159,0.632 -1.6119,2.0545 -1.9759,2.4759 -0.364,0.4213 -0.7281,0.4743 -1.3519,0.1581 -0.624,-0.3161 -2.6347,-0.9828 -5.0183,-3.1342 -1.8551,-1.6745 -3.1075,-3.7422 -3.4715,-4.3744 -0.364,-0.6322 -0.0388,-0.9738 0.2736,-1.2887 0.2807,-0.283 0.624,-0.7377 0.936,-1.1063 0.312,-0.3686 0.416,-0.6322 0.624,-1.0533 0.208,-0.4216 0.1041,-0.7902 -0.052,-1.1063 -0.156,-0.3161 -1.404,-3.4243 -1.924,-4.6887 -0.5065,-1.2313 -1.021,-1.0645 -1.404,-1.0839 -0.3636,-0.0185 -0.78,-0.0224 -1.196,-0.0224 -0.416,0 -1.0921,0.158 -1.6641,0.7902 -0.572,0.6322 -2.184,2.1599 -2.184,5.2678 0,3.1082 2.236,6.1109 2.548,6.5322 0.312,0.4217 4.4003,6.7996 10.6603,9.5348 1.4888,0.6507 2.6511,1.0392 3.5574,1.3302 1.4949,0.4807 2.8554,0.4128 3.9304,0.2502 1.1991,-0.1812 3.6921,-1.5275 4.2123,-3.0024 0.5197,-1.4753 0.5197,-2.7396 0.3638,-3.0029 z"
     fill="#a6c78e"
     id="path80" />
</svg>
