<svg viewBox="0 0 600 745" fill="none" xmlns="http://www.w3.org/2000/svg"><defs><linearGradient id="a" x1="488.143" y1="376.825" x2="-35.999" y2="857.499" gradientUnits="userSpaceOnUse"><stop offset=".561" stop-color="#CAD99E"/><stop offset=".675" stop-color="#CAD99E"/><stop offset=".931" stop-color="#CAD99E" stop-opacity="0"/></linearGradient><linearGradient id="c" x1="312.5" y1="1307.5" x2="602.857" y2="419.626" gradientUnits="userSpaceOnUse"><stop offset=".271" stop-color="#A6C78E" stop-opacity="0"/><stop offset=".677" stop-color="#A6C78E"/></linearGradient><filter id="b" x="-4" y="-3.571" width="499.5" height="684.211" filterUnits="userSpaceOnUse" color-interpolation-filters="sRGB"><feFlood flood-opacity="0" result="BackgroundImageFix"/><feGaussianBlur in="BackgroundImageFix" stdDeviation="2"/><feComposite in2="SourceAlpha" operator="in" result="effect1_backgroundBlur_2395_113"/><feBlend in="SourceGraphic" in2="effect1_backgroundBlur_2395_113" result="shape"/></filter></defs><path d="m392.5 114.5 16.013-23.13A282.767 282.767 0 0 1 492 12l16.453-6.688c26.821-10.903 57.615-3.176 76.111 19.099a66.416 66.416 0 0 1 15.319 42.751l-1.024 211.679a149.997 149.997 0 0 1-59.591 118.967L294.75 582.5h-46.355a121.369 121.369 0 0 0-99.982 52.564l-8.104 11.776a176.061 176.061 0 0 0-29.53 76.937L108 745l-15.54-5.961a148.794 148.794 0 0 1-82.565-78.227 99.194 99.194 0 0 1-8.065-29.899l-.375-3.496c-7.154-66.777 19.61-132.699 71.288-175.591l14.763-12.252a191.726 191.726 0 0 1 57.795-32.966l24.639-8.827c78.624-28.166 139.531-91.511 164.591-171.18a53.45 53.45 0 0 1 3.672-8.823L392.5 114.5Z" fill="url(#a)"/><g filter="url(#b)" transform="translate(108.094 67.986)"><path d="M180.283 491.225A140.094 140.094 0 0 0 302.221 390.92l11.415-39.135 36.811-189.766 19.348-71.588C384.554 35.828 434.969-1.427 491.5.5v476.14c0 110.457-89.543 200-200 200H0c0-71.719 42.347-136.673 107.969-165.61l13.65-6.02a161.283 161.283 0 0 1 50.622-13.061l8.042-.724Z" fill="url(#c)"/></g></svg>