<svg xmlns="http://www.w3.org/2000/svg" width="599" height="775" fill="none">
  <path fill="url(#a)" d="M371.563 184.325a299.982 299.982 0 0 1 52.636-71.756l23.879-24.054a300.005 300.005 0 0 1 53.975-43.086l15.943-9.958A300 300 0 0 1 585 4.346L598.5 0v301.335c0 50.953-25.866 98.422-68.682 126.044l-203.523 186.46-94.636-3.09c-15.296 6.003-29.805 16.715-42.293 16.132l2.687 6.905c-18.158 12.97-38.023 23.116-50.674 41.499l-1.07 1.555a176.061 176.061 0 0 0-29.53 76.937l-1.875 22.254-16.444-6.992a148.794 148.794 0 0 1-82.565-78.227 99.194 99.194 0 0 1-8.065-29.899l-.375-3.496c-7.154-66.777 19.61-132.699 71.288-175.591l14.763-12.252a191.726 191.726 0 0 1 57.795-32.966l24.639-8.827c78.624-28.166 139.531-91.511 164.591-171.18a53.45 53.45 0 0 1 3.672-8.823z" style="fill:url(#a)"/>
  <g filter="url(#filter0_b_1788_299)" style="filter:url(#b)" transform="translate(109.075 69.91)">
    <path fill="url(#paint0_linear_1788_299)" d="M180.283 522.225A140.094 140.094 0 0 0 302.221 421.92l11.415-39.135 36.811-189.766 18.309-67.743C385.051 64.985 431.554 17.523 491.5 0v707.64H0c0-71.719 42.347-136.673 107.969-165.61l13.65-6.02a161.283 161.283 0 0 1 50.622-13.061z" style="fill:url(#c)"/>
  </g>
  <defs>
    <linearGradient id="a" x1="488.143" x2="-36" y1="406.826" y2="887.5" gradientUnits="userSpaceOnUse">
      <stop offset=".561" stop-color="#CAD99E"/>
      <stop offset=".675" stop-color="#CAD99E"/>
      <stop offset=".931" stop-color="#CAD99E" stop-opacity="0"/>
    </linearGradient>
    <linearGradient id="c" x1="312.5" x2="602.857" y1="1338.5" y2="450.626" gradientUnits="userSpaceOnUse">
      <stop offset=".271" stop-color="#A6C78E" stop-opacity="0"/>
      <stop offset=".677" stop-color="#A6C78E"/>
    </linearGradient>
    <filter id="b" width="499.5" height="715.64" x="-4" y="-4" color-interpolation-filters="sRGB" filterUnits="userSpaceOnUse">
      <feFlood flood-opacity="0" result="BackgroundImageFix"/>
      <feGaussianBlur in="BackgroundImageFix" stdDeviation="2"/>
      <feComposite in2="SourceAlpha" operator="in" result="effect1_backgroundBlur_1788_299"/>
      <feBlend in="SourceGraphic" in2="effect1_backgroundBlur_1788_299" result="shape"/>
    </filter>
  </defs>
</svg>

