<svg width="39" height="40" viewBox="0 0 39 40" fill="none" xmlns="http://www.w3.org/2000/svg">
<g clip-path="url(#clip0_1810_201)">
<path d="M39 19.5107C39 8.74118 30.2696 0.0107422 19.5 0.0107422C8.73044 0.0107422 0 8.74118 0 19.5107C0 29.2436 7.13083 37.311 16.4531 38.7738V25.1475H11.502V19.5107H16.4531V15.2146C16.4531 10.3275 19.3644 7.62793 23.8186 7.62793C25.9514 7.62793 28.1836 8.00879 28.1836 8.00879V12.8076H25.7248C23.3025 12.8076 22.5469 14.3109 22.5469 15.8545V19.5107H27.9551L27.0905 25.1475H22.5469V38.7738C31.8692 37.311 39 29.2436 39 19.5107Z" fill="white"/>
</g>
<defs>
<clipPath id="clip0_1810_201">
<rect width="39" height="39" fill="white" transform="translate(0 0.0107422)"/>
</clipPath>
</defs>
</svg>
