<svg width="473" height="568" viewBox="0 0 473 568" fill="none" xmlns="http://www.w3.org/2000/svg">
<circle cx="236.5" cy="331.244" r="236.5" fill="url(#paint0_radial_1788_191)"/>
<path d="M153.558 51.3298L151.724 45.2153C150.254 40.3178 150.133 35.1146 151.374 30.1541V30.1541C152.365 26.1886 154.2 22.4835 156.753 19.2917L161.036 13.938M135.882 32.294C137.468 32.7472 141.321 34.4695 144.04 37.7328C146.759 40.9961 151.065 48.1572 152.878 51.3298" stroke="#FF6258" stroke-width="3"/>
<path d="M335.334 162.342L328.28 171.663L301.829 202.322C299.532 204.984 297.628 207.961 296.173 211.162C289.408 226.043 293.234 243.6 305.576 254.318L309.246 257.505C310.146 258.287 310.92 259.202 311.541 260.219C315.07 265.992 312.936 273.547 306.909 276.623L119.566 372.219H115.851C100.662 372.219 85.9337 366.996 74.1378 357.426C62.6079 348.072 54.5568 335.113 51.2781 320.632L49.5531 313.013C43.5496 286.498 50.3041 258.701 67.8058 237.897L71.4465 233.569C74.5023 229.937 78.0745 226.772 82.0489 224.177C98.5686 213.388 106.914 193.673 103.16 174.303L95.8054 136.354C93.5405 124.667 93.7139 112.639 96.3146 101.022L99.2422 87.9459C101.403 78.2964 106.616 69.6003 114.109 63.1479C122.454 55.962 133.101 52.0097 144.113 52.0097H153.558C153.785 44.5313 158.045 27.1272 173.274 17.3373C188.502 7.54745 210.439 0.567626 215.424 1.02086L234.452 1.02087C241.688 1.02087 248.903 1.8063 255.969 3.36337L269.358 6.31348C280.014 8.66128 290.213 12.7371 299.552 18.3794L309.906 24.6347C315.344 27.9203 320.452 31.7238 325.158 35.9923L328.163 38.718C340.65 50.0436 349.498 64.8184 353.587 81.1734C357.055 95.047 356.976 109.57 353.358 123.406L352.339 127.3C349.023 139.982 343.245 151.889 335.334 162.342Z" fill="url(#paint1_linear_1788_191)" stroke="black" stroke-opacity="0.05"/>
<g filter="url(#filter0_d_1788_191)">
<mask id="path-4-inside-1_1788_191" fill="white">
<path fill-rule="evenodd" clip-rule="evenodd" d="M311.601 202.954C318.954 196.511 328.28 188.338 328.28 177.103C328.28 165.96 324.842 154.507 320.251 139.214C318.387 133.002 316.332 126.155 314.239 118.438C268.689 122.518 244 113.22 227.219 90.5645V90.8338C227.219 117.102 227.219 120.525 218.144 133.592C207.909 148.33 173.274 151.948 154.238 147.189C148.799 157.387 150.159 175.063 172.594 175.063C172.594 175.063 185.511 175.063 197.068 193.419C197.916 194.765 198.783 196.088 199.668 197.386C199.906 198.092 200.116 198.809 200.297 199.534L201.147 202.936L203.867 225.371V235.445C203.867 241.373 202.813 247.253 200.754 252.811L197.068 262.763L186.871 287.918L227.662 323.95L241.259 270.922L246.43 258.317C250.176 249.185 256.118 241.118 263.727 234.832L267.773 231.49L270.629 229.858C281.128 226.616 289.735 220.502 303.369 210.389C304.559 209.507 305.635 208.479 306.684 207.434C308.089 206.033 309.785 204.546 311.601 202.954Z"/>
</mask>
<path fill-rule="evenodd" clip-rule="evenodd" d="M311.601 202.954C318.954 196.511 328.28 188.338 328.28 177.103C328.28 165.96 324.842 154.507 320.251 139.214C318.387 133.002 316.332 126.155 314.239 118.438C268.689 122.518 244 113.22 227.219 90.5645V90.8338C227.219 117.102 227.219 120.525 218.144 133.592C207.909 148.33 173.274 151.948 154.238 147.189C148.799 157.387 150.159 175.063 172.594 175.063C172.594 175.063 185.511 175.063 197.068 193.419C197.916 194.765 198.783 196.088 199.668 197.386C199.906 198.092 200.116 198.809 200.297 199.534L201.147 202.936L203.867 225.371V235.445C203.867 241.373 202.813 247.253 200.754 252.811L197.068 262.763L186.871 287.918L227.662 323.95L241.259 270.922L246.43 258.317C250.176 249.185 256.118 241.118 263.727 234.832L267.773 231.49L270.629 229.858C281.128 226.616 289.735 220.502 303.369 210.389C304.559 209.507 305.635 208.479 306.684 207.434C308.089 206.033 309.785 204.546 311.601 202.954Z" fill="#FAECCE"/>
<path d="M311.601 202.954L310.942 202.202L311.601 202.954ZM320.251 139.214L321.209 138.927V138.927L320.251 139.214ZM314.239 118.438L315.205 118.177L314.985 117.368L314.15 117.442L314.239 118.438ZM227.219 90.5645L228.022 89.9693L226.219 87.5345V90.5645H227.219ZM227.219 90.8338H226.219V90.8338L227.219 90.8338ZM218.144 133.592L218.965 134.163L218.144 133.592ZM154.238 147.189L154.48 146.219L153.723 146.03L153.355 146.719L154.238 147.189ZM197.068 193.419L197.915 192.886L197.068 193.419ZM199.668 197.386L200.616 197.067L200.572 196.936L200.495 196.822L199.668 197.386ZM201.147 202.936L202.14 202.816L202.133 202.754L202.118 202.694L201.147 202.936ZM203.867 225.371H204.867V225.311L204.86 225.251L203.867 225.371ZM203.867 235.445H202.867H203.867ZM200.754 252.811L201.692 253.159L200.754 252.811ZM197.068 262.763L197.995 263.139L198.001 263.125L198.006 263.111L197.068 262.763ZM186.871 287.918L185.944 287.542L185.678 288.198L186.209 288.667L186.871 287.918ZM227.662 323.95L227 324.699L228.224 325.781L228.63 324.198L227.662 323.95ZM241.259 270.922L240.333 270.542L240.307 270.606L240.29 270.673L241.259 270.922ZM246.43 258.317L245.505 257.937L246.43 258.317ZM263.727 234.832L263.09 234.061L263.727 234.832ZM267.773 231.49L267.277 230.622L267.202 230.665L267.136 230.719L267.773 231.49ZM270.629 229.858L270.334 228.903L270.228 228.935L270.132 228.99L270.629 229.858ZM303.369 210.389L303.965 211.192L303.369 210.389ZM306.684 207.434L307.39 208.142V208.142L306.684 207.434ZM327.28 177.103C327.28 182.426 325.074 187.069 321.903 191.218C318.723 195.379 314.631 198.969 310.942 202.202L312.261 203.707C315.924 200.496 320.171 196.778 323.492 192.432C326.822 188.075 329.28 183.014 329.28 177.103H327.28ZM319.294 139.502C323.897 154.837 327.28 166.137 327.28 177.103H329.28C329.28 165.782 325.787 154.176 321.209 138.927L319.294 139.502ZM313.274 118.7C315.37 126.431 317.429 133.29 319.294 139.502L321.209 138.927C319.344 132.713 317.293 125.879 315.205 118.177L313.274 118.7ZM226.415 91.1597C234.919 102.64 245.452 110.76 259.625 115.476C273.77 120.182 291.482 121.48 314.329 119.434L314.15 117.442C291.447 119.476 274.04 118.164 260.257 113.578C246.502 109.001 236.3 101.144 228.022 89.9693L226.415 91.1597ZM228.219 90.8338V90.5645H226.219V90.8338H228.219ZM218.965 134.163C223.528 127.593 225.891 123.334 227.066 117.356C228.223 111.464 228.219 103.92 228.219 90.8338L226.219 90.8338C226.219 104.016 226.214 111.318 225.103 116.971C224.009 122.539 221.835 126.524 217.322 133.022L218.965 134.163ZM153.995 148.16C163.673 150.579 177.235 150.858 189.663 148.687C195.884 147.6 201.858 145.893 206.942 143.509C212.019 141.128 216.271 138.042 218.965 134.163L217.322 133.022C214.899 136.511 210.984 139.404 206.093 141.698C201.21 143.988 195.416 145.652 189.319 146.717C177.111 148.85 163.838 148.559 154.48 146.219L153.995 148.16ZM172.594 174.063C161.667 174.063 156.148 169.791 153.881 164.553C151.566 159.206 152.506 152.561 155.12 147.66L153.355 146.719C150.531 152.015 149.431 159.308 152.045 165.348C154.707 171.497 161.085 176.063 172.594 176.063V174.063ZM197.915 192.886C192.041 183.558 185.785 178.84 180.938 176.46C178.518 175.272 176.461 174.673 174.994 174.371C174.261 174.22 173.676 174.143 173.266 174.104C173.062 174.084 172.901 174.074 172.788 174.069C172.731 174.066 172.686 174.065 172.654 174.064C172.637 174.064 172.624 174.064 172.614 174.063C172.609 174.063 172.605 174.063 172.602 174.063C172.6 174.063 172.598 174.063 172.597 174.063C172.596 174.063 172.596 174.063 172.595 174.063C172.594 174.063 172.594 174.063 172.594 175.063C172.594 176.063 172.593 176.063 172.592 176.063C172.592 176.063 172.592 176.063 172.592 176.063C172.591 176.063 172.591 176.063 172.59 176.063C172.59 176.063 172.591 176.063 172.592 176.063C172.594 176.063 172.6 176.063 172.609 176.064C172.626 176.064 172.655 176.065 172.696 176.067C172.777 176.07 172.905 176.078 173.076 176.095C173.418 176.127 173.932 176.194 174.591 176.329C175.907 176.601 177.802 177.149 180.056 178.255C184.557 180.465 190.538 184.924 196.222 193.952L197.915 192.886ZM200.495 196.822C199.616 195.535 198.755 194.222 197.915 192.886L196.222 193.952C197.076 195.309 197.95 196.641 198.842 197.949L200.495 196.822ZM201.267 199.292C201.079 198.541 200.862 197.799 200.616 197.067L198.721 197.704C198.95 198.386 199.152 199.077 199.327 199.777L201.267 199.292ZM202.118 202.694L201.267 199.292L199.327 199.777L200.177 203.179L202.118 202.694ZM204.86 225.251L202.14 202.816L200.155 203.057L202.874 225.492L204.86 225.251ZM204.867 235.445V225.371H202.867V235.445H204.867ZM201.692 253.159C203.792 247.489 204.867 241.491 204.867 235.445H202.867C202.867 241.254 201.834 247.017 199.817 252.464L201.692 253.159ZM198.006 263.111L201.692 253.159L199.817 252.464L196.131 262.416L198.006 263.111ZM187.797 288.293L197.995 263.139L196.142 262.388L185.944 287.542L187.797 288.293ZM228.324 323.2L187.533 287.168L186.209 288.667L227 324.699L228.324 323.2ZM240.29 270.673L226.693 323.702L228.63 324.198L242.227 271.17L240.29 270.673ZM245.505 257.937L240.333 270.542L242.184 271.301L247.355 258.696L245.505 257.937ZM263.09 234.061C255.354 240.452 249.314 248.653 245.505 257.937L247.355 258.696C251.039 249.717 256.881 241.785 264.364 235.603L263.09 234.061ZM267.136 230.719L263.09 234.061L264.364 235.603L268.41 232.261L267.136 230.719ZM270.132 228.99L267.277 230.622L268.269 232.358L271.125 230.727L270.132 228.99ZM302.774 209.585C289.114 219.717 280.642 225.719 270.334 228.903L270.924 230.814C281.614 227.513 290.355 221.287 303.965 211.192L302.774 209.585ZM305.978 206.726C304.935 207.765 303.901 208.749 302.774 209.585L303.965 211.192C305.216 210.264 306.335 209.193 307.39 208.142L305.978 206.726ZM310.942 202.202C309.133 203.788 307.41 205.297 305.978 206.726L307.39 208.142C308.768 206.768 310.437 205.304 312.261 203.707L310.942 202.202Z" fill="black" fill-opacity="0.02" mask="url(#path-4-inside-1_1788_191)"/>
</g>
<path d="M241.259 156.707V157.018C241.259 162.854 236.528 167.585 230.692 167.585V167.585C228.712 167.585 226.771 167.028 225.092 165.978L224.25 165.452C222.908 164.614 221.718 163.554 220.73 162.319L219.503 160.786M219.503 160.786L219.093 158.321C218.956 157.5 218.085 157.024 217.319 157.352V157.352C215.16 158.277 212.883 158.902 210.554 159.209L208.904 159.426M219.503 160.786C217.328 162.418 214.065 163.732 212.705 164.185M290.208 142.43V142.43C292.373 145.894 295.929 148.174 300.011 147.991C301.269 147.935 302.238 147.869 302.445 147.869C303.125 147.869 305.845 146.509 307.204 144.47C308.201 142.975 308.132 140.796 308.462 138.351C308.518 137.937 308.826 137.606 309.23 137.505V137.505C310.585 137.166 311.859 136.56 312.976 135.722L314.003 134.952M273.212 154.667C272.985 156.027 272.804 159.426 273.892 162.146C275.251 165.545 276.611 168.264 277.971 170.304C278.401 170.949 278.774 171.687 279.083 172.399C279.829 174.121 280.69 175.905 280.69 177.782V177.782C280.69 178.28 280.5 178.893 280.25 179.475C279.749 180.644 278.732 181.481 277.594 182.05V182.05C276.942 182.376 276.245 182.602 275.527 182.722L274.652 182.868C273.26 183.1 271.832 182.988 270.492 182.541V182.541" stroke="#A37678"/>
<path d="M307.884 141.07C308.111 141.297 308.972 141.614 310.604 141.07C312.235 140.526 312.643 140.39 312.643 140.39" stroke="#A37678"/>
<path d="M267.773 209.735C267.773 211.095 267.093 211.775 265.733 213.134C265.054 213.814 263.557 214.735 262.334 215.174C261.478 215.481 260.627 215.581 259.883 215.646C258.797 215.742 257.702 215.854 256.612 215.854V215.854C254.57 215.854 252.564 215.321 250.791 214.308L250.596 214.197C249.366 213.493 248.263 212.587 247.334 211.516L245.79 209.735L244.317 207.725C243.644 206.808 243.156 205.768 242.881 204.665L242.662 203.79C242.633 203.674 242.618 203.495 242.618 203.376V203.376C242.618 202.575 241.969 202.257 241.168 202.257H239.219" stroke="#551313" stroke-opacity="0.5"/>
<g filter="url(#filter1_i_1788_191)">
<path d="M394.225 321.429V314.006C394.225 312.051 396.658 311.151 397.93 312.636L402.768 318.28C410.601 327.419 416.668 337.935 420.658 349.291L420.994 350.249C422.635 354.918 423.927 359.703 424.859 364.563L429.287 387.654C431.724 400.358 431.672 413.415 429.135 426.1L426.265 440.447C424.409 449.727 420.897 458.597 415.898 466.633L409.425 477.036C406.151 482.297 401.516 486.575 396.009 489.417C387.903 493.601 378.465 494.39 369.776 491.609L359.509 488.324C352.805 486.179 346.589 482.734 341.216 478.188C334.942 472.879 329.972 466.199 326.691 458.664L319.287 441.662C315.375 432.679 313.805 422.85 314.726 413.095C316.015 399.434 322.112 386.673 331.931 377.088L345.276 364.061L358.193 379.018L369.75 389.215C369.75 388.57 371.345 382.631 373.115 376.25C375.325 368.285 375.269 359.854 372.862 351.946L372.127 349.531C371.903 348.795 371.742 348.04 371.646 347.276L370.594 338.854C370.146 335.272 372.939 332.108 376.549 332.108H383.546C387.591 332.108 391.289 329.823 393.098 326.205C393.839 324.722 394.225 323.087 394.225 321.429Z" fill="white"/>
<path d="M369.75 389.216C369.75 388.57 371.345 382.631 373.115 376.25C375.325 368.285 375.269 359.854 372.862 351.946L372.127 349.531C371.903 348.795 371.742 348.04 371.646 347.276L370.594 338.854C370.146 335.272 372.939 332.108 376.549 332.108V332.108H383.546C387.591 332.108 391.289 329.823 393.098 326.205V326.205C393.839 324.722 394.225 323.087 394.225 321.429V314.006C394.225 312.051 396.658 311.151 397.93 312.636L402.768 318.28C410.601 327.419 416.668 337.935 420.658 349.291L420.994 350.249C422.635 354.918 423.927 359.703 424.859 364.563L429.287 387.654C431.724 400.358 431.672 413.415 429.135 426.1L426.265 440.447C424.409 449.727 420.897 458.597 415.898 466.633L409.425 477.036C406.151 482.297 401.516 486.575 396.009 489.417V489.417C387.903 493.601 378.465 494.39 369.776 491.609L359.509 488.324C352.805 486.179 346.589 482.734 341.216 478.188V478.188C334.942 472.879 329.972 466.199 326.691 458.664L319.287 441.662C315.375 432.679 313.805 422.85 314.726 413.095V413.095C316.015 399.434 322.112 386.673 331.931 377.088L345.276 364.061L358.193 379.018L369.75 389.216ZM369.75 389.216C369.75 390.303 364.312 401.453 361.592 406.892" stroke="black" stroke-opacity="0.1"/>
<path d="M142.68 448.362C137.345 409.59 168.131 375.319 207.252 376.482L315.363 379.697L322.161 427.287L330.999 460.6L340.314 493.476C341.807 498.743 343.729 503.88 346.062 508.832L358.388 534.997L337.467 545.003L315.363 554.099L304.844 558.358C296.911 561.57 288.6 563.75 280.112 564.845L264.698 566.834L233.771 567.744L214.214 566.834L191.019 563.196L168.279 557.738L145.538 549.551L131.894 543.184L140.025 508.602C141.789 501.1 142.68 493.419 142.68 485.713V448.362Z" fill="white"/>
<path d="M143.18 448.362V448.328L143.176 448.294C137.882 409.828 168.425 375.828 207.237 376.982L314.927 380.185L321.666 427.358L321.67 427.387L321.678 427.415L330.516 460.728L330.518 460.736L339.833 493.612C341.333 498.906 343.265 504.068 345.61 509.046L357.724 534.761L337.264 544.546L315.175 553.636L315.172 553.637L304.656 557.895C296.763 561.09 288.493 563.26 280.048 564.349L264.658 566.335L233.775 567.243L214.265 566.336L191.116 562.705L168.422 557.258L145.729 549.089L132.474 542.903L140.512 508.717C142.285 501.177 143.18 493.458 143.18 485.713V448.362Z" stroke="black" stroke-opacity="0.1"/>
<circle cx="255.535" cy="416.41" r="5.43881" fill="#C4C4C4"/>
<path d="M256.895 416.41C256.895 417.161 256.286 417.769 255.535 417.769C254.785 417.769 254.176 417.161 254.176 416.41C254.176 415.659 254.785 415.05 255.535 415.05C256.286 415.05 256.895 415.659 256.895 416.41Z" fill="#686565"/>
<circle cx="263.694" cy="466.719" r="5.43881" fill="#C4C4C4"/>
<path d="M265.053 466.718C265.053 467.469 264.445 468.077 263.694 468.077C262.943 468.077 262.334 467.469 262.334 466.718C262.334 465.967 262.943 465.358 263.694 465.358C264.445 465.358 265.053 465.967 265.053 466.718Z" fill="#686565"/>
<circle cx="277.291" cy="515.668" r="5.43881" fill="#C4C4C4"/>
<path d="M278.651 515.668C278.651 516.419 278.042 517.028 277.291 517.028C276.54 517.028 275.931 516.419 275.931 515.668C275.931 514.917 276.54 514.309 277.291 514.309C278.042 514.309 278.651 514.917 278.651 515.668Z" fill="#686565"/>
</g>
<g filter="url(#filter2_i_1788_191)">
<path d="M344.596 236.25L376.797 182.954L376.797 195.67L344.596 236.25Z" fill="white"/>
<path d="M376.697 195.635L345.493 234.958L376.697 183.313L376.697 195.635Z" stroke="black" stroke-opacity="0.2" stroke-width="0.2"/>
<path d="M341.197 241.109L379.517 184.313L379.517 199.537L341.197 241.109Z" fill="white"/>
<path d="M379.417 199.498L342.019 240.07L379.417 184.64L379.417 199.498Z" stroke="black" stroke-opacity="0.2" stroke-width="0.2"/>
<path d="M317.402 253.926L237.859 245.767L241.938 251.206L317.402 253.926Z" fill="white"/>
<path d="M241.99 251.108L314.387 253.717L238.076 245.89L241.99 251.108Z" stroke="black" stroke-opacity="0.2" stroke-width="0.2"/>
<path d="M337.118 245.767L386.067 190.02V308.314L331.679 387.176L337.118 245.767Z" fill="#AB3828"/>
<path d="M332.245 385.475L337.611 245.964L385.567 191.347V308.158L332.245 385.475Z" stroke="black" stroke-opacity="0.05"/>
<path d="M227.662 247.807L321.481 253.925L318.762 396.694L227.662 374.939V247.807Z" fill="#AB3828"/>
<path d="M228.162 374.544V248.34L320.972 254.393L318.274 396.063L228.162 374.544Z" stroke="black" stroke-opacity="0.05"/>
<path d="M320.79 255.19C320.797 254.829 320.998 254.5 321.316 254.329L336.945 245.913C337.624 245.547 338.445 246.057 338.418 246.828L333.733 384.702C333.724 384.98 333.6 385.241 333.39 385.423L319.78 397.257C319.127 397.826 318.108 397.35 318.124 396.484L320.79 255.19Z" fill="#AB3828"/>
<path d="M321.29 255.2C321.294 255.019 321.394 254.855 321.553 254.769L337.182 246.354C337.522 246.171 337.932 246.425 337.919 246.811L333.234 384.685C333.229 384.824 333.167 384.955 333.062 385.046L319.452 396.88C319.125 397.165 318.616 396.927 318.624 396.493L321.29 255.2Z" stroke="black" stroke-opacity="0.05"/>
<path d="M343.916 236.25L376.117 182.954L376.117 195.67L343.916 236.25Z" fill="white"/>
<path d="M376.017 195.635L344.814 234.958L376.017 183.313L376.017 195.635Z" stroke="black" stroke-opacity="0.2" stroke-width="0.2"/>
<path d="M340.517 241.109L378.836 184.313L378.836 199.537L340.517 241.109Z" fill="white"/>
<path d="M378.736 199.498L341.338 240.07L378.736 184.64L378.736 199.498Z" stroke="black" stroke-opacity="0.2" stroke-width="0.2"/>
<path d="M316.722 253.926L237.18 245.767L241.259 251.206L316.722 253.926Z" fill="white"/>
<path d="M241.31 251.108L313.707 253.717L237.397 245.89L241.31 251.108Z" stroke="black" stroke-opacity="0.2" stroke-width="0.2"/>
<path d="M336.438 245.767L385.387 190.02V308.314L330.999 387.176L336.438 245.767Z" fill="#A6C78E"/>
<path d="M331.565 385.475L336.931 245.964L384.887 191.347V308.158L331.565 385.475Z" stroke="black" stroke-opacity="0.05"/>
<path d="M226.982 247.807L320.801 253.925L318.082 396.694L226.982 374.939V247.807Z" fill="#A6C78E"/>
<path d="M227.482 374.544V248.34L320.292 254.393L317.594 396.063L227.482 374.544Z" stroke="black" stroke-opacity="0.05"/>
<path d="M320.111 255.19C320.118 254.829 320.318 254.5 320.636 254.329L336.265 245.913C336.945 245.547 337.765 246.057 337.739 246.828L333.054 384.702C333.044 384.98 332.92 385.241 332.71 385.423L319.101 397.257C318.447 397.826 317.428 397.35 317.445 396.484L320.111 255.19Z" fill="#CAD99E"/>
<path d="M320.611 255.2C320.614 255.019 320.715 254.855 320.873 254.769L336.502 246.354C336.842 246.171 337.252 246.425 337.239 246.811L332.554 384.685C332.549 384.824 332.487 384.955 332.382 385.046L318.773 396.88C318.446 397.165 317.937 396.927 317.945 396.493L320.611 255.2Z" stroke="black" stroke-opacity="0.05"/>
</g>
<g filter="url(#filter3_i_1788_191)">
<path d="M139.73 342.353L142.413 339.318C153.218 327.09 167.453 318.399 183.267 314.374L192.646 311.986C195.124 311.355 197.689 311.139 200.237 311.346C212.273 312.321 221.543 322.374 221.543 334.449V349.785L227.824 353.48C231.279 355.512 235.214 356.584 239.222 356.584H242.182C242.92 356.584 243.652 356.716 244.343 356.975C246.938 357.949 248.563 360.536 248.312 363.296L246.37 384.662C246.136 387.237 245.611 389.777 244.806 392.234L236.795 416.689C234.341 424.182 231.008 431.358 226.868 438.069L218.953 450.897C215.251 456.896 210.925 462.487 206.048 467.577L192.768 481.434C185.723 488.785 177.39 494.781 168.182 499.124L157.011 504.394C149.874 507.76 141.92 509.004 134.095 507.978C116.494 505.67 102.354 492.338 99.0155 474.903L98.4899 472.158L98.2971 471.368C93.9757 453.65 94.5818 435.088 100.05 417.689L103.489 406.746C105.589 400.064 108.386 393.621 111.832 387.523L128.282 358.419C131.527 352.679 135.363 347.294 139.73 342.353Z" fill="white"/>
<path d="M221.543 349.785L227.824 353.48C231.279 355.512 235.214 356.584 239.222 356.584H242.182C242.92 356.584 243.652 356.716 244.343 356.975V356.975C246.938 357.949 248.563 360.536 248.312 363.296L246.37 384.662C246.136 387.237 245.611 389.777 244.806 392.234L236.795 416.689C234.341 424.182 231.008 431.358 226.868 438.069L218.953 450.897C215.251 456.896 210.925 462.487 206.048 467.577L192.768 481.434C185.723 488.785 177.39 494.781 168.182 499.124L157.011 504.394C149.874 507.76 141.92 509.004 134.095 507.978V507.978C116.494 505.67 102.354 492.338 99.0155 474.903L98.4899 472.158L98.2971 471.368C93.9757 453.65 94.5818 435.088 100.05 417.689L103.489 406.746C105.589 400.064 108.386 393.621 111.832 387.523L128.282 358.419C131.527 352.679 135.363 347.294 139.73 342.353L142.413 339.318C153.218 327.09 167.453 318.399 183.267 314.374L192.646 311.986C195.124 311.355 197.689 311.139 200.237 311.346V311.346C212.273 312.321 221.543 322.374 221.543 334.449V349.785ZM221.543 349.785V349.785C212.993 354.285 205.263 360.195 198.679 367.267L190.27 376.299L171.079 397.565C167.111 401.962 163.542 406.702 160.413 411.731L146.079 434.766" stroke="black" stroke-opacity="0.1"/>
<path d="M189.816 285.46L194.647 286.59L204.475 289.689C212.696 292.281 219.585 297.972 223.682 305.556C224.542 307.148 225.271 308.808 225.86 310.519L240.254 352.312C240.516 353.072 239.819 353.815 239.043 353.602L217.621 347.712L203.521 343.756L188.349 339.853C187.597 339.66 187.343 338.722 187.893 338.175L192.823 333.281L202.427 322.04C203.276 321.046 203.678 319.747 203.538 318.447C203.258 315.838 200.916 313.951 198.307 314.231L196.76 314.397C195.99 314.48 195.242 314.703 194.553 315.057L178.746 323.169L164.283 329.57C163.365 329.976 162.318 329.372 162.211 328.374L162.109 327.425C161.741 324.001 161.657 320.552 161.857 317.114L162.166 311.807C162.399 307.813 163.35 303.893 164.973 300.236L166.351 297.134C167.808 293.852 170.1 291.009 172.998 288.888C177.836 285.347 183.978 284.095 189.816 285.46Z" fill="white" stroke="black" stroke-opacity="0.1"/>
</g>
<path d="M277.518 406.251L311 400.384L317.648 438.316C318.124 441.036 316.306 443.628 313.586 444.104L289.953 448.246C287.233 448.722 284.642 446.904 284.165 444.184L277.518 406.251Z" fill="white"/>
<path d="M278.097 406.657L310.594 400.963L317.155 438.403C317.584 440.851 315.947 443.183 313.499 443.612L289.867 447.753C287.419 448.182 285.087 446.545 284.658 444.097L278.097 406.657Z" stroke="black" stroke-opacity="0.1"/>
<path d="M277.518 406.251L311 400.384L312.001 406.095C312.097 406.639 311.733 407.158 311.189 407.253L279.677 412.775C279.133 412.87 278.614 412.507 278.519 411.963L277.518 406.251Z" fill="white"/>
<path d="M278.097 406.657L310.594 400.963L311.509 406.182C311.556 406.454 311.375 406.713 311.103 406.76L279.59 412.283C279.318 412.33 279.059 412.148 279.011 411.876L278.097 406.657Z" stroke="black" stroke-opacity="0.1"/>
<path d="M243.978 393.974L251.456 442.243L260.294 487.793L275.613 564.105" stroke="black" stroke-opacity="0.1"/>
<g filter="url(#filter4_i_1788_191)">
<path d="M222.903 336.187V349.81C222.903 350.223 223.091 350.614 223.414 350.873L224.366 351.635C227.848 354.421 232.062 356.139 236.5 356.583H239.219C241.455 356.583 243.659 357.103 245.659 358.103L246.497 358.522C246.601 358.574 246.726 358.518 246.757 358.406L246.876 357.968C248.112 353.437 249.916 349.081 252.246 345.003L254.176 341.626L260.295 329.389L269.133 313.752L273.042 305.283C273.154 305.04 273.212 304.775 273.212 304.508V304.151C273.212 302.94 271.937 302.152 270.854 302.694C270.617 302.812 270.412 302.988 270.257 303.204L267.093 307.633L261.917 315.397C261.744 315.658 261.52 315.881 261.26 316.055L260.677 316.443C259.351 317.327 257.575 316.377 257.575 314.783C257.575 314.551 257.616 314.32 257.695 314.102L260.295 306.954L263.014 299.475L264.943 292.401C265.016 292.135 265.03 291.856 264.985 291.584L264.975 291.527C264.724 290.016 262.869 289.422 261.786 290.505C261.699 290.593 261.62 290.689 261.551 290.792L257.575 296.756L254.005 303.897C253.666 304.574 253.275 305.223 252.835 305.839L250.334 309.341C250.18 309.557 249.961 309.718 249.71 309.802C248.897 310.073 248.089 309.469 248.182 308.618C248.35 307.08 248.712 304.688 249.417 301.515C249.446 301.385 249.475 301.257 249.503 301.132C250.313 297.566 252.237 293.056 253.393 289.586L254.025 287.691C254.124 287.395 254.136 287.077 254.06 286.775L254.009 286.571C253.759 285.571 252.594 285.12 251.736 285.692C251.552 285.815 251.398 285.976 251.284 286.166L249.417 289.278L244.658 298.116L240.617 305.524C240.592 305.57 240.563 305.615 240.531 305.658L240.499 305.701C239.871 306.538 238.539 306.094 238.539 305.048C238.539 304.959 238.55 304.87 238.572 304.784L240.579 296.756L243.158 288.374C243.25 288.074 243.265 287.753 243.204 287.446C242.935 286.101 241.349 285.471 240.251 286.294C240.02 286.468 239.832 286.693 239.702 286.952L235.14 296.076L231.572 302.816C229.874 306.023 228.42 309.353 227.221 312.778C225.256 318.392 223.99 324.226 223.452 330.149L222.903 336.187Z" fill="#FAECCE"/>
</g>
<path d="M222.903 336.187V349.81C222.903 350.223 223.091 350.614 223.414 350.873L224.366 351.635C227.848 354.421 232.062 356.139 236.5 356.583H239.219C241.455 356.583 243.659 357.103 245.659 358.103L246.497 358.522C246.601 358.574 246.726 358.518 246.757 358.406L246.876 357.968C248.112 353.437 249.916 349.081 252.246 345.003L254.176 341.626L260.295 329.389L269.133 313.752L273.042 305.283C273.154 305.04 273.212 304.775 273.212 304.508V304.151C273.212 302.94 271.937 302.152 270.854 302.694C270.617 302.812 270.412 302.988 270.257 303.204L267.093 307.633L261.917 315.397C261.744 315.658 261.52 315.881 261.26 316.055L260.677 316.443C259.351 317.327 257.575 316.377 257.575 314.783C257.575 314.551 257.616 314.32 257.695 314.102L260.295 306.954L263.014 299.475L264.943 292.401C265.016 292.135 265.03 291.856 264.985 291.584L264.975 291.527C264.724 290.016 262.869 289.422 261.786 290.505C261.699 290.593 261.62 290.689 261.551 290.792L257.575 296.756L254.005 303.897C253.666 304.574 253.275 305.223 252.835 305.839L250.334 309.341C250.18 309.557 249.961 309.718 249.71 309.802C248.897 310.073 248.089 309.469 248.182 308.618C248.35 307.08 248.712 304.688 249.417 301.515C249.446 301.385 249.475 301.257 249.503 301.132C250.313 297.566 252.237 293.056 253.393 289.586L254.025 287.691C254.124 287.395 254.136 287.077 254.06 286.775L254.009 286.571C253.759 285.571 252.594 285.12 251.736 285.692C251.552 285.815 251.398 285.976 251.284 286.166L249.417 289.278L244.658 298.116L240.617 305.524C240.592 305.57 240.563 305.615 240.531 305.658L240.499 305.701C239.871 306.538 238.539 306.094 238.539 305.048C238.539 304.959 238.55 304.87 238.572 304.784L240.579 296.756L243.158 288.374C243.25 288.074 243.265 287.753 243.204 287.446C242.935 286.101 241.349 285.471 240.251 286.294C240.02 286.468 239.832 286.693 239.702 286.952L235.14 296.076L231.572 302.816C229.874 306.023 228.42 309.353 227.221 312.778C225.256 318.392 223.99 324.226 223.452 330.149L222.903 336.187Z" stroke="black" stroke-opacity="0.02"/>
<g filter="url(#filter5_i_1788_191)">
<path d="M394.153 298.624L394.372 300.835V311.713V316.204C394.372 319.539 393.908 322.857 392.994 326.064C392.206 328.686 390.002 330.636 387.304 331.099L386.152 331.297C385.643 331.384 385.127 331.428 384.611 331.428H384.027H380.628H377.425C377.308 331.428 377.203 331.353 377.166 331.242L376.65 329.723C375.831 327.308 374.544 325.078 372.861 323.161C371.735 321.88 370.784 320.455 370.032 318.924L367.081 312.921C366.241 311.212 365.557 309.431 365.037 307.6C364.275 304.915 363.161 302.342 361.724 299.949L357.219 292.446L354.935 287.266C354.842 287.054 354.794 286.825 354.794 286.594V286.357C354.794 285.225 355.987 284.49 356.998 285C357.145 285.073 357.278 285.17 357.393 285.287L358.351 286.252C358.808 286.713 359.219 287.217 359.577 287.759L363.656 293.928C363.81 294.16 364.008 294.36 364.239 294.515L364.743 294.853C365.93 295.651 367.527 294.8 367.527 293.37C367.527 293.163 367.491 292.958 367.421 292.763L365.102 286.333L362.676 279.61L360.892 271.815C360.869 271.715 360.857 271.612 360.857 271.508C360.857 270.086 362.751 269.599 363.437 270.844L363.889 271.664L367.527 277.165L370.715 283.591C371.015 284.196 371.361 284.776 371.752 285.327L373.986 288.481C374.123 288.674 374.318 288.819 374.542 288.894C375.267 289.138 375.988 288.6 375.906 287.84C375.757 286.459 375.434 284.304 374.803 281.444C374.779 281.332 374.755 281.223 374.731 281.116C374.007 277.903 372.286 273.83 371.252 270.702L370.692 269.01C370.605 268.747 370.594 268.465 370.661 268.196L370.709 268C370.931 267.107 371.973 266.705 372.737 267.219C372.9 267.328 373.036 267.472 373.137 267.641L374.803 270.441L379.048 278.387L382.652 285.049C382.675 285.09 382.7 285.13 382.728 285.168L382.774 285.23C383.326 285.972 384.505 285.581 384.505 284.656C384.505 284.553 384.488 284.45 384.455 284.351L380.867 273.641L378.795 265.711C378.756 265.56 378.745 265.403 378.762 265.248C378.881 264.22 380.119 263.764 380.876 264.471L382.362 265.86C382.576 266.06 382.75 266.299 382.873 266.564L387.537 276.554C391.141 283.417 393.387 290.91 394.153 298.624Z" fill="#FAECCE"/>
</g>
<path d="M394.153 298.624L394.372 300.835V311.713V316.204C394.372 319.539 393.908 322.857 392.994 326.064C392.206 328.686 390.002 330.636 387.304 331.099L386.152 331.297C385.643 331.384 385.127 331.428 384.611 331.428H384.027H380.628H377.425C377.308 331.428 377.203 331.353 377.166 331.242L376.65 329.723C375.831 327.308 374.544 325.078 372.861 323.161C371.735 321.88 370.784 320.455 370.032 318.924L367.081 312.921C366.241 311.212 365.557 309.431 365.037 307.6C364.275 304.915 363.161 302.342 361.724 299.949L357.219 292.446L354.935 287.266C354.842 287.054 354.794 286.825 354.794 286.594V286.357C354.794 285.225 355.987 284.49 356.998 285C357.145 285.073 357.278 285.17 357.393 285.287L358.351 286.252C358.808 286.713 359.219 287.217 359.577 287.759L363.656 293.928C363.81 294.16 364.008 294.36 364.239 294.515L364.743 294.853C365.93 295.651 367.527 294.8 367.527 293.37C367.527 293.163 367.491 292.958 367.421 292.763L365.102 286.333L362.676 279.61L360.892 271.815C360.869 271.715 360.857 271.612 360.857 271.508C360.857 270.086 362.751 269.599 363.437 270.844L363.889 271.664L367.527 277.165L370.715 283.591C371.015 284.196 371.361 284.776 371.752 285.327L373.986 288.481C374.123 288.674 374.318 288.819 374.542 288.894C375.267 289.138 375.988 288.6 375.906 287.84C375.757 286.459 375.434 284.304 374.803 281.444C374.779 281.332 374.755 281.223 374.731 281.116C374.007 277.903 372.286 273.83 371.252 270.702L370.692 269.01C370.605 268.747 370.594 268.465 370.661 268.196L370.709 268C370.931 267.107 371.973 266.705 372.737 267.219C372.9 267.328 373.036 267.472 373.137 267.641L374.803 270.441L379.048 278.387L382.652 285.049C382.675 285.09 382.7 285.13 382.728 285.168L382.774 285.23C383.326 285.972 384.505 285.581 384.505 284.656C384.505 284.553 384.488 284.45 384.455 284.351L380.867 273.641L378.795 265.711C378.756 265.56 378.745 265.403 378.762 265.248C378.881 264.22 380.119 263.764 380.876 264.471L382.362 265.86C382.576 266.06 382.75 266.299 382.873 266.564L387.537 276.554C391.141 283.417 393.387 290.91 394.153 298.624Z" stroke="black" stroke-opacity="0.02"/>
<defs>
<filter id="filter0_d_1788_191" x="147.563" y="90.5645" width="184.716" height="241.385" filterUnits="userSpaceOnUse" color-interpolation-filters="sRGB">
<feFlood flood-opacity="0" result="BackgroundImageFix"/>
<feColorMatrix in="SourceAlpha" type="matrix" values="0 0 0 0 0 0 0 0 0 0 0 0 0 0 0 0 0 0 127 0" result="hardAlpha"/>
<feOffset dy="4"/>
<feGaussianBlur stdDeviation="2"/>
<feComposite in2="hardAlpha" operator="out"/>
<feColorMatrix type="matrix" values="0 0 0 0 0 0 0 0 0 0 0 0 0 0 0 0 0 0 0.25 0"/>
<feBlend mode="normal" in2="BackgroundImageFix" result="effect1_dropShadow_1788_191"/>
<feBlend mode="normal" in="SourceGraphic" in2="effect1_dropShadow_1788_191" result="shape"/>
</filter>
<filter id="filter1_i_1788_191" x="131.894" y="311.395" width="299.683" height="260.349" filterUnits="userSpaceOnUse" color-interpolation-filters="sRGB">
<feFlood flood-opacity="0" result="BackgroundImageFix"/>
<feBlend mode="normal" in="SourceGraphic" in2="BackgroundImageFix" result="shape"/>
<feColorMatrix in="SourceAlpha" type="matrix" values="0 0 0 0 0 0 0 0 0 0 0 0 0 0 0 0 0 0 127 0" result="hardAlpha"/>
<feOffset dy="4"/>
<feGaussianBlur stdDeviation="2"/>
<feComposite in2="hardAlpha" operator="arithmetic" k2="-1" k3="1"/>
<feColorMatrix type="matrix" values="0 0 0 0 0 0 0 0 0 0 0 0 0 0 0 0 0 0 0.25 0"/>
<feBlend mode="normal" in2="shape" result="effect1_innerShadow_1788_191"/>
</filter>
<filter id="filter2_i_1788_191" x="226.982" y="182.954" width="159.085" height="218.551" filterUnits="userSpaceOnUse" color-interpolation-filters="sRGB">
<feFlood flood-opacity="0" result="BackgroundImageFix"/>
<feBlend mode="normal" in="SourceGraphic" in2="BackgroundImageFix" result="shape"/>
<feColorMatrix in="SourceAlpha" type="matrix" values="0 0 0 0 0 0 0 0 0 0 0 0 0 0 0 0 0 0 127 0" result="hardAlpha"/>
<feOffset dy="4"/>
<feGaussianBlur stdDeviation="2"/>
<feComposite in2="hardAlpha" operator="arithmetic" k2="-1" k3="1"/>
<feColorMatrix type="matrix" values="0 0 0 0 0 0 0 0 0 0 0 0 0 0 0 0 0 0 0.25 0"/>
<feBlend mode="normal" in2="shape" result="effect1_innerShadow_1788_191"/>
</filter>
<filter id="filter3_i_1788_191" x="94.9492" y="275.42" width="153.888" height="233.408" filterUnits="userSpaceOnUse" color-interpolation-filters="sRGB">
<feFlood flood-opacity="0" result="BackgroundImageFix"/>
<feBlend mode="normal" in="SourceGraphic" in2="BackgroundImageFix" result="shape"/>
<feColorMatrix in="SourceAlpha" type="matrix" values="0 0 0 0 0 0 0 0 0 0 0 0 0 0 0 0 0 0 127 0" result="hardAlpha"/>
<feOffset dy="-9"/>
<feGaussianBlur stdDeviation="5"/>
<feComposite in2="hardAlpha" operator="arithmetic" k2="-1" k3="1"/>
<feColorMatrix type="matrix" values="0 0 0 0 0 0 0 0 0 0 0 0 0 0 0 0 0 0 0.25 0"/>
<feBlend mode="normal" in2="shape" result="effect1_innerShadow_1788_191"/>
</filter>
<filter id="filter4_i_1788_191" x="222.403" y="284.94" width="51.3091" height="78.1014" filterUnits="userSpaceOnUse" color-interpolation-filters="sRGB">
<feFlood flood-opacity="0" result="BackgroundImageFix"/>
<feBlend mode="normal" in="SourceGraphic" in2="BackgroundImageFix" result="shape"/>
<feColorMatrix in="SourceAlpha" type="matrix" values="0 0 0 0 0 0 0 0 0 0 0 0 0 0 0 0 0 0 127 0" result="hardAlpha"/>
<feOffset dy="4"/>
<feGaussianBlur stdDeviation="2"/>
<feComposite in2="hardAlpha" operator="arithmetic" k2="-1" k3="1"/>
<feColorMatrix type="matrix" values="0 0 0 0 0 0 0 0 0 0 0 0 0 0 0 0 0 0 0.25 0"/>
<feBlend mode="normal" in2="shape" result="effect1_innerShadow_1788_191"/>
</filter>
<filter id="filter5_i_1788_191" x="354.294" y="263.629" width="40.5781" height="72.299" filterUnits="userSpaceOnUse" color-interpolation-filters="sRGB">
<feFlood flood-opacity="0" result="BackgroundImageFix"/>
<feBlend mode="normal" in="SourceGraphic" in2="BackgroundImageFix" result="shape"/>
<feColorMatrix in="SourceAlpha" type="matrix" values="0 0 0 0 0 0 0 0 0 0 0 0 0 0 0 0 0 0 127 0" result="hardAlpha"/>
<feOffset dy="4"/>
<feGaussianBlur stdDeviation="2"/>
<feComposite in2="hardAlpha" operator="arithmetic" k2="-1" k3="1"/>
<feColorMatrix type="matrix" values="0 0 0 0 0 0 0 0 0 0 0 0 0 0 0 0 0 0 0.25 0"/>
<feBlend mode="normal" in2="shape" result="effect1_innerShadow_1788_191"/>
</filter>
<radialGradient id="paint0_radial_1788_191" cx="0" cy="0" r="1" gradientUnits="userSpaceOnUse" gradientTransform="translate(236.5 331.244) rotate(90) scale(236.5)">
<stop offset="0.078125" stop-color="#FCCACB" stop-opacity="0"/>
<stop offset="0.895833" stop-color="#FCCACB"/>
</radialGradient>
<linearGradient id="paint1_linear_1788_191" x1="162.396" y1="245.067" x2="359.553" y2="-166.923" gradientUnits="userSpaceOnUse">
<stop offset="0.402446" stop-color="#FF6258"/>
<stop offset="0.663672" stop-color="#FF6258" stop-opacity="0.360107"/>
<stop offset="0.986819" stop-color="#FF6258" stop-opacity="0"/>
</linearGradient>
</defs>
</svg>
