<svg width="40" height="40" viewBox="0 0 40 40" fill="none" xmlns="http://www.w3.org/2000/svg">
<g clip-path="url(#clip0_1810_202)">
<path d="M20.1431 3.52227C25.3532 3.52227 25.9702 3.54512 28.0192 3.63652C29.9235 3.72031 30.9519 4.04023 31.6374 4.30684C32.5438 4.65723 33.1989 5.08379 33.8769 5.76172C34.5624 6.44727 34.9813 7.09473 35.3317 8.00117C35.5983 8.68672 35.9183 9.72266 36.0021 11.6193C36.0935 13.676 36.1163 14.293 36.1163 19.4955C36.1163 24.7057 36.0935 25.3227 36.0021 27.3717C35.9183 29.276 35.5983 30.3043 35.3317 30.9898C34.9813 31.8963 34.5548 32.5514 33.8769 33.2293C33.1913 33.9148 32.5438 34.3338 31.6374 34.6842C30.9519 34.9508 29.9159 35.2707 28.0192 35.3545C25.9626 35.4459 25.3456 35.4688 20.1431 35.4688C14.9329 35.4688 14.3159 35.4459 12.2669 35.3545C10.3626 35.2707 9.33428 34.9508 8.64873 34.6842C7.74229 34.3338 7.08721 33.9072 6.40928 33.2293C5.72373 32.5438 5.30479 31.8963 4.95439 30.9898C4.68779 30.3043 4.36787 29.2684 4.28408 27.3717C4.19268 25.315 4.16982 24.698 4.16982 19.4955C4.16982 14.2854 4.19268 13.6684 4.28408 11.6193C4.36787 9.71504 4.68779 8.68672 4.95439 8.00117C5.30479 7.09473 5.73135 6.43965 6.40928 5.76172C7.09482 5.07617 7.74229 4.65723 8.64873 4.30684C9.33428 4.04023 10.3702 3.72031 12.2669 3.63652C14.3159 3.54512 14.9329 3.52227 20.1431 3.52227ZM20.1431 0.0107422C14.8491 0.0107422 14.1864 0.0335937 12.1069 0.125C10.0351 0.216406 8.61064 0.551562 7.37666 1.03145C6.08936 1.53418 5.0001 2.19687 3.91846 3.28613C2.8292 4.36777 2.1665 5.45703 1.66377 6.73672C1.18389 7.97832 0.84873 9.39512 0.757324 11.467C0.665918 13.5541 0.643066 14.2168 0.643066 19.5107C0.643066 24.8047 0.665918 25.4674 0.757324 27.5469C0.84873 29.6188 1.18389 31.0432 1.66377 32.2771C2.1665 33.5645 2.8292 34.6537 3.91846 35.7354C5.0001 36.817 6.08936 37.4873 7.36904 37.9824C8.61065 38.4623 10.0274 38.7975 12.0993 38.8889C14.1788 38.9803 14.8415 39.0031 20.1354 39.0031C25.4294 39.0031 26.0921 38.9803 28.1716 38.8889C30.2435 38.7975 31.6679 38.4623 32.9019 37.9824C34.1815 37.4873 35.2708 36.817 36.3524 35.7354C37.4341 34.6537 38.1044 33.5645 38.5995 32.2848C39.0794 31.0432 39.4146 29.6264 39.506 27.5545C39.5974 25.475 39.6202 24.8123 39.6202 19.5184C39.6202 14.2244 39.5974 13.5617 39.506 11.4822C39.4146 9.41035 39.0794 7.98594 38.5995 6.75195C38.1196 5.45703 37.4569 4.36777 36.3677 3.28613C35.286 2.20449 34.1968 1.53418 32.9171 1.03906C31.6755 0.55918 30.2587 0.224023 28.1868 0.132617C26.0997 0.0335938 25.437 0.0107422 20.1431 0.0107422Z" fill="white"/>
<path d="M20.1431 9.49414C14.613 9.49414 10.1265 13.9807 10.1265 19.5107C10.1265 25.0408 14.613 29.5273 20.1431 29.5273C25.6731 29.5273 30.1597 25.0408 30.1597 19.5107C30.1597 13.9807 25.6731 9.49414 20.1431 9.49414ZM20.1431 26.0082C16.5554 26.0082 13.6456 23.0984 13.6456 19.5107C13.6456 15.923 16.5554 13.0133 20.1431 13.0133C23.7308 13.0133 26.6405 15.923 26.6405 19.5107C26.6405 23.0984 23.7308 26.0082 20.1431 26.0082Z" fill="white"/>
<path d="M32.8942 9.098C32.8942 10.3929 31.8431 11.4365 30.5558 11.4365C29.2608 11.4365 28.2173 10.3853 28.2173 9.098C28.2173 7.80308 29.2685 6.75952 30.5558 6.75952C31.8431 6.75952 32.8942 7.8107 32.8942 9.098Z" fill="white"/>
</g>
<defs>
<clipPath id="clip0_1810_202">
<rect width="39" height="39" fill="white" transform="translate(0.643066 0.0107422)"/>
</clipPath>
</defs>
</svg>
