<svg width="180" height="180" viewBox="0 0 180 180" fill="none" xmlns="http://www.w3.org/2000/svg">
<circle cx="90" cy="90" r="90" fill="#CAD99E"/>
<path d="M60.3267 26.355L64.9331 22.9227L68.3583 19.731C68.7233 19.3909 69.0519 19.0137 69.3387 18.6055V18.6055C70.5544 16.8755 70.9463 14.6977 70.4098 12.6524L70.3495 12.4225M70.3495 12.4225L69.3589 9.7356M70.3495 12.4225H72.9689L73.7101 12.5129C75.6718 12.7521 77.5816 13.3082 79.3651 14.1594V14.1594C80.218 14.5665 81.0379 15.0391 81.8176 15.5731L83.4493 16.6904L84.9847 17.955M86.1589 23.9163L84.0303 23.6453M73.2137 35.553L77.142 33.2743C78.2934 32.6064 79.3214 31.7457 80.1812 30.7296V30.7296M80.1812 30.7296L81.8626 28.7425L82.6612 27.478M80.1812 30.7296L82.6364 31.5034M82.6612 27.478L83.1413 26.7179C83.722 25.7983 84.0303 24.7329 84.0303 23.6453V23.6453M82.6612 27.478L84.9847 28.0711M84.0303 23.6453V23.6453C83.644 22.8647 83.1764 22.127 82.6352 21.4446L81.5383 20.0616C81.4275 19.9219 81.3057 19.7913 81.174 19.6711V19.6711M70.5331 15.8775L74.1513 16.1602C75.5768 16.2716 76.9627 16.6831 78.218 17.3678V17.3678C78.933 17.7578 79.5984 18.2325 80.1999 18.7817L81.174 19.6711M76.2234 16.6904L75.5596 18.7769C75.1611 20.0292 74.589 21.2195 73.8601 22.3129V22.3129C73.2698 23.1983 72.581 24.0138 71.8068 24.7438L69.8105 26.6259L66.5589 29.0646L63.0363 31.2324M68.4557 34.8453L72.3396 32.2259L74.2539 30.6306C75.1441 29.8888 75.9762 29.0799 76.7429 28.211L77.1226 27.7806C77.906 26.8928 78.5954 25.9263 79.1799 24.8965V24.8965C79.856 23.7054 80.387 22.4375 80.7618 21.1202L81.174 19.6711" stroke="white"/>
<path d="M65.1138 22.7421L64.9278 22.5746C63.2575 21.0714 61.8544 19.2955 60.7783 17.3227V17.3227M64.5719 12.2646L64.9952 13.7227C65.2536 14.6127 65.6385 15.461 66.1381 16.2416V16.2416C66.5973 16.9592 67.1493 17.613 67.7797 18.1861L68.817 19.1292" stroke="white"/>
<circle cx="72.9717" cy="22.471" r="12.7081" stroke="white" stroke-width="1.5"/>
<circle cx="98.7893" cy="56.0343" r="12.5688" stroke="white" stroke-width="2"/>
<path d="M117.034 50.745L116.028 48.8846C115.093 47.1563 115.223 45.0241 116.336 43.4048V43.4048C117.292 42.0147 118.886 41.1625 120.573 41.1625V41.1625C121.708 41.1625 122.811 41.5396 123.709 42.2346L123.847 42.3419C124.411 42.7782 124.887 43.3175 125.249 43.9311L126.694 46.3754L133.056 60.5575L134.833 66.5219C135.078 67.3453 135.203 68.1999 135.203 69.059V69.5755C135.203 70.9933 134.783 72.3793 133.997 73.559V73.559C133.378 74.4866 132.552 75.2575 131.584 75.8107L129.581 76.9553C128.68 77.4702 127.734 77.9013 126.754 78.2432L121.634 80.0291L108.016 83.1716C107.799 83.2219 107.601 83.3377 107.451 83.5034L106.104 84.9899C103.321 88.0617 101.779 92.059 101.779 96.2044V96.2044V100.168C101.779 105.134 102.149 110.092 102.885 115.003L102.929 115.293L104.232 119.739L112.501 138.436C112.66 138.797 112.88 139.127 113.151 139.413V139.413C113.773 140.069 114.628 140.455 115.532 140.487L127.153 140.897L133.743 140.528C134.801 140.468 135.856 140.68 136.809 141.143V141.143C137.619 141.537 138.335 142.102 138.905 142.799L139.001 142.916C139.279 143.256 139.518 143.625 139.714 144.017L139.735 144.059C140.132 144.853 140.339 145.729 140.339 146.617V146.617C140.339 147.832 139.952 149.015 139.235 149.995L138.931 150.411C138.347 151.209 137.559 151.833 136.649 152.218V152.218C136.248 152.387 135.829 152.508 135.4 152.578L133.806 152.839C132.797 153.003 131.777 153.086 130.754 153.086C127.306 153.086 122.406 153.086 122.247 153.086C122.092 153.086 117.656 152.797 114.411 152.583C113.3 152.51 112.197 152.343 111.113 152.084L109.244 151.638C108.16 151.379 107.132 150.927 106.209 150.303V150.303C105.257 149.66 104.433 148.845 103.779 147.9L103.537 147.551C102.981 146.747 102.529 145.875 102.192 144.957L93.2535 120.568C92.9942 119.861 92.2764 119.43 91.5299 119.533V119.533C90.6962 119.649 90.0945 120.391 90.1528 121.23L91.4574 140.036C91.4873 140.466 91.7684 140.839 92.1742 140.985L99.5131 143.638C101.14 144.225 102.484 145.407 103.275 146.944V146.944C103.579 147.535 103.968 148.078 104.428 148.557L104.867 149.013C105.564 149.738 106.369 150.35 107.254 150.827L108.022 151.241C108.253 151.366 108.501 151.46 108.757 151.521L109.654 151.736C110.493 151.936 111.085 152.686 111.085 153.549V153.549C111.085 153.987 110.931 154.411 110.656 154.753C109.987 155.586 109.013 156.843 109.062 156.843C109.105 156.843 108.079 157.316 107.09 157.767C106.319 158.119 105.48 158.299 104.632 158.299V158.299C104.062 158.299 103.495 158.217 102.948 158.057L94.6496 155.616L86.7211 152.092C86.0286 151.784 85.364 151.417 84.7348 150.995L83.7677 150.346C81.4145 148.766 79.8074 146.295 79.3176 143.504V143.504L78.9343 138.367L78.321 125.105V118.896V118.896C78.7286 113.966 78.5704 109.007 77.8497 104.113L77.835 104.013L76.6345 96.2044L76.1746 85.1654V80.0632C76.1746 78.8508 76.41 77.65 76.8678 76.5274V76.5274C77.501 74.9749 78.5524 73.611 79.8876 72.5969V72.5969C81.823 71.127 84.267 70.4391 86.6832 70.7007L99.6395 72.1036C104.504 72.6304 109.423 72.3083 114.178 71.1518L115.501 70.8299L119.449 69.5138C122.259 68.5773 123.644 65.4173 122.427 62.7169L117.034 50.745Z" stroke="white" stroke-width="2"/>
<path d="M66.8986 71.3662H81.9064L81.6183 71.5862C78.337 74.0925 76.2324 77.8391 75.7992 81.9453H69.965L62.4524 81.4853L62.0757 81.4124C60.7445 81.1548 59.4352 80.7947 58.1594 80.3354L39.6265 71.5341C38.7516 71.1186 37.9544 70.5562 37.2695 69.8713L36.7004 69.3022C36.2416 68.8434 35.8837 68.2939 35.6495 67.6889C35.283 66.7422 35.2356 65.7018 35.5145 64.7258L35.7094 64.0437C35.903 63.3659 36.2662 62.7487 36.7646 62.2503C37.3198 61.6951 38.0211 61.3089 38.7871 61.1366L39.1944 61.0449C40.1677 60.8259 41.1817 60.8714 42.1314 61.1767L42.8274 61.4004L59.4283 69.2274C61.7865 70.3393 64.3093 71.0616 66.8986 71.3662Z" stroke="white" stroke-width="2"/>
</svg>
