<svg width="99" height="100" viewBox="0 0 99 100" fill="none" xmlns="http://www.w3.org/2000/svg">
<ellipse cx="49.5" cy="50" rx="49.5" ry="50" fill="white"/>
<path fill-rule="evenodd" clip-rule="evenodd" d="M50 92C26.804 92 8 72.9721 8 49.5C8 26.0279 26.804 7 50 7C73.196 7 92 26.0279 92 49.5C92 72.9721 73.196 92 50 92ZM51.3844 73.1451C65.1541 73.1394 76.3532 61.8042 76.3587 47.8735C76.3614 41.121 73.766 34.7717 69.0509 29.995C64.3357 25.2181 58.0651 22.5863 51.3841 22.5833C37.6184 22.5833 26.4149 33.9197 26.4094 47.8536C26.4075 52.3076 27.5575 56.6551 29.7431 60.4877L26.2 73.5833L39.4394 70.069C43.0872 72.0824 47.1942 73.1436 51.3741 73.1451H51.3844Z" fill="#A6C78E"/>
<path fill-rule="evenodd" clip-rule="evenodd" d="M40.0527 65.494L32.1963 67.5794L34.2933 59.8282L33.7997 59.0335C31.7218 55.6893 30.6244 51.824 30.626 47.855C30.6305 36.2738 39.9425 26.8518 51.3925 26.8518C56.9369 26.8538 62.1487 29.0414 66.0678 33.0117C69.9869 36.9821 72.144 42.2594 72.1418 47.872C72.1373 59.4541 62.8254 68.8771 51.3843 68.8771H51.3759C47.6511 68.8756 43.9977 67.863 40.8107 65.9492L40.0527 65.494ZM63.9663 53.883C63.8103 53.6196 63.3944 53.4616 62.7704 53.1454C62.1463 52.8294 59.0783 51.3019 58.5062 51.091C57.9343 50.8804 57.5181 50.7751 57.1022 51.4071C56.6863 52.0391 55.4903 53.4616 55.1263 53.883C54.7623 54.3043 54.3982 54.3573 53.7744 54.0411C53.1504 53.725 51.1397 53.0583 48.7561 50.9069C46.901 49.2324 45.6486 47.1647 45.2846 46.5325C44.9206 45.9003 45.2458 45.5587 45.5582 45.2438C45.8389 44.9608 46.1822 44.5061 46.4942 44.1375C46.8062 43.7689 46.9102 43.5053 47.1182 43.0842C47.3262 42.6626 47.2223 42.294 47.0662 41.9779C46.9102 41.6618 45.6622 38.5536 45.1422 37.2892C44.6357 36.0579 44.1212 36.2247 43.7382 36.2053C43.3746 36.1868 42.9582 36.1829 42.5422 36.1829C42.1262 36.1829 41.4501 36.3409 40.8781 36.9731C40.3061 37.6053 38.6941 39.133 38.6941 42.2409C38.6941 45.3491 40.9301 48.3518 41.2421 48.7731C41.5541 49.1948 45.6424 55.5727 51.9024 58.3079C53.3912 58.9586 54.5535 59.3471 55.4598 59.6381C56.9547 60.1188 58.3152 60.0509 59.3902 59.8883C60.5893 59.7071 63.0823 58.3608 63.6025 56.8859C64.1222 55.4106 64.1222 54.1463 63.9663 53.883Z" fill="#A6C78E"/>
</svg>
