<svg id="visual" viewBox="0 0 760 200" width="760" height="200" xmlns="http://www.w3.org/2000/svg" xmlns:xlink="http://www.w3.org/1999/xlink" version="1.1"><path d="M0 103L18.2 110.5C36.3 118 72.7 133 108.8 129.7C145 126.3 181 104.7 217.2 91.5C253.3 78.3 289.7 73.7 325.8 73.7C362 73.7 398 78.3 434.2 84.8C470.3 91.3 506.7 99.7 542.8 107.7C579 115.7 615 123.3 651.2 124C687.3 124.7 723.7 118.3 741.8 115.2L760 112L760 201L741.8 201C723.7 201 687.3 201 651.2 201C615 201 579 201 542.8 201C506.7 201 470.3 201 434.2 201C398 201 362 201 325.8 201C289.7 201 253.3 201 217.2 201C181 201 145 201 108.8 201C72.7 201 36.3 201 18.2 201L0 201Z" fill="#0066FF" stroke-linecap="round" stroke-linejoin="miter"></path></svg>