<svg viewBox="0 0 769 100" preserveAspectRatio="none" xmlns="http://www.w3.org/2000/svg" xmlns:xlink="http://www.w3.org/1999/xlink" version="1.1"><path d="M0 68L18.3 64C36.7 60 73.3 52 110 45.8C146.7 39.7 183.3 35.3 220 37.5C256.7 39.7 293.3 48.3 329.8 55C366.3 61.7 402.7 66.3 439.2 61.5C475.7 56.7 512.3 42.3 549 39.7C585.7 37 622.3 46 659 52.7C695.7 59.3 732.3 63.7 750.7 65.8L769 68L769 0L750.7 0C732.3 0 695.7 0 659 0C622.3 0 585.7 0 549 0C512.3 0 475.7 0 439.2 0C402.7 0 366.3 0 329.8 0C293.3 0 256.7 0 220 0C183.3 0 146.7 0 110 0C73.3 0 36.7 0 18.3 0L0 0Z" stroke-linecap="round" stroke-linejoin="miter"></path></svg>
