<svg viewBox="0 0 1280 100" preserveAspectRatio="none" xmlns="http://www.w3.org/2000/svg" xmlns:xlink="http://www.w3.org/1999/xlink" version="1.1"><path d="M0 23L23.7 30.5C47.3 38 94.7 53 142 54.7C189.3 56.3 236.7 44.7 284.2 38C331.7 31.3 379.3 29.7 426.8 36.3C474.3 43 521.7 58 569 68.7C616.3 79.3 663.7 85.7 711 76.2C758.3 66.7 805.7 41.3 853.2 35.8C900.7 30.3 948.3 44.7 995.8 53.7C1043.3 62.7 1090.7 66.3 1138 59.8C1185.3 53.3 1232.7 36.7 1256.3 28.3L1280 20L1280 0L1256.3 0C1232.7 0 1185.3 0 1138 0C1090.7 0 1043.3 0 995.8 0C948.3 0 900.7 0 853.2 0C805.7 0 758.3 0 711 0C663.7 0 616.3 0 569 0C521.7 0 474.3 0 426.8 0C379.3 0 331.7 0 284.2 0C236.7 0 189.3 0 142 0C94.7 0 47.3 0 23.7 0L0 0Z" stroke-linecap="round" stroke-linejoin="miter"></path></svg>
