<svg id="visual" viewBox="0 0 1280 200" width="1280" height="200" xmlns="http://www.w3.org/2000/svg" xmlns:xlink="http://www.w3.org/1999/xlink" version="1.1"><path d="M0 91L35.5 88.3C71 85.7 142 80.3 213.2 89C284.3 97.7 355.7 120.3 426.8 118.5C498 116.7 569 90.3 640 87.5C711 84.7 782 105.3 853.2 108C924.3 110.7 995.7 95.3 1066.8 94C1138 92.7 1209 105.3 1244.5 111.7L1280 118L1280 201L1244.5 201C1209 201 1138 201 1066.8 201C995.7 201 924.3 201 853.2 201C782 201 711 201 640 201C569 201 498 201 426.8 201C355.7 201 284.3 201 213.2 201C142 201 71 201 35.5 201L0 201Z" fill="#0066FF" stroke-linecap="round" stroke-linejoin="miter"></path></svg>